<?xml version="1.0" encoding="UTF-8" standalone="no"?><svg xmlns="http://www.w3.org/2000/svg" xmlns:xlink="http://www.w3.org/1999/xlink" contentScriptType="application/ecmascript" contentStyleType="text/css" height="90px" preserveAspectRatio="none" style="width:194px;height:90px;" version="1.1" viewBox="0 0 194 90" width="194px" zoomAndPan="magnify"><defs><filter height="300%" id="f1vekxdba7qrx7" width="300%" x="-1" y="-1"><feGaussianBlur result="blurOut" stdDeviation="2.0"/><feColorMatrix in="blurOut" result="blurOut2" type="matrix" values="0 0 0 0 0 0 0 0 0 0 0 0 0 0 0 0 0 0 .4 0"/><feOffset dx="4.0" dy="4.0" in="blurOut2" result="blurOut3"/><feBlend in="SourceGraphic" in2="blurOut3" mode="normal"/></filter></defs><g><!--MD5=[e301789dcbd4af56164632d6ce990eb6]
class ImplicitMsgProgram--><a href="ImplicitMsgProgram.html" target="_top" title="ImplicitMsgProgram.html" xlink:actuate="onRequest" xlink:href="ImplicitMsgProgram.html" xlink:show="new" xlink:title="ImplicitMsgProgram.html" xlink:type="simple"><rect fill="#FEFECE" filter="url(#f1vekxdba7qrx7)" height="52.9551" id="ImplicitMsgProgram" style="stroke: #A80036; stroke-width: 1.5;" width="145" x="18.5" y="7"/><ellipse cx="33.5" cy="23" fill="#ADD1B2" rx="11" ry="11" style="stroke: #A80036; stroke-width: 1.0;"/><path d="M35.9731,29.1431 Q35.3921,29.4419 34.7529,29.5913 Q34.1138,29.7407 33.4082,29.7407 Q30.9014,29.7407 29.5815,28.0889 Q28.2617,26.437 28.2617,23.3159 Q28.2617,20.1865 29.5815,18.5347 Q30.9014,16.8828 33.4082,16.8828 Q34.1138,16.8828 34.7612,17.0322 Q35.4087,17.1816 35.9731,17.4805 L35.9731,20.2031 Q35.3423,19.6221 34.7488,19.3523 Q34.1553,19.0825 33.5244,19.0825 Q32.1797,19.0825 31.4949,20.1492 Q30.8101,21.2158 30.8101,23.3159 Q30.8101,25.4077 31.4949,26.4744 Q32.1797,27.541 33.5244,27.541 Q34.1553,27.541 34.7488,27.2712 Q35.3423,27.0015 35.9731,26.4204 Z "/><text fill="#000000" font-family="sans-serif" font-size="12" lengthAdjust="spacingAndGlyphs" textLength="113" x="47.5" y="27.5352">ImplicitMsgProgram</text><line style="stroke: #A80036; stroke-width: 1.5;" x1="19.5" x2="162.5" y1="39" y2="39"/><ellipse cx="29.5" cy="50" fill="#84BE84" rx="3" ry="3" style="stroke: #038048; stroke-width: 1.0;"/><text fill="#000000" font-family="sans-serif" font-size="11" lengthAdjust="spacingAndGlyphs" text-decoration="underline" textLength="103" x="38.5" y="53.6348">main(String[]): void</text></a><text fill="#888888" font-family="sans-serif" font-size="10" lengthAdjust="spacingAndGlyphs" textLength="182" x="0" y="76.623">UMLDoclet 2.0.9, PlantUML 1.2020.08</text><!--MD5=[2986ae93d42642eb29d5ee819dd4152e]
@startuml
    set namespaceSeparator none
    hide empty fields
    hide empty methods

    class ImplicitMsgProgram [[ImplicitMsgProgram.html]] {
        {static} +main(String[]): void
    }

    center footer UMLDoclet 2.0.9, PlantUML 1.2020.08
@enduml

PlantUML version 1.2020.08(Sun Apr 26 16:08:22 CEST 2020)
(APACHE source distribution)
Java Runtime: OpenJDK Runtime Environment
JVM: OpenJDK 64-Bit Server VM
Java Version: 14.0.2+12-46
Operating System: Mac OS X
Default Encoding: UTF-8
Language: fr
Country: FR
--></g></svg>