<?xml version="1.0" encoding="UTF-8" standalone="no"?><svg xmlns="http://www.w3.org/2000/svg" xmlns:xlink="http://www.w3.org/1999/xlink" contentScriptType="application/ecmascript" contentStyleType="text/css" height="153px" preserveAspectRatio="none" style="width:378px;height:153px;" version="1.1" viewBox="0 0 378 153" width="378px" zoomAndPan="magnify"><defs><filter height="300%" id="fusnt4pf4dplg" width="300%" x="-1" y="-1"><feGaussianBlur result="blurOut" stdDeviation="2.0"/><feColorMatrix in="blurOut" result="blurOut2" type="matrix" values="0 0 0 0 0 0 0 0 0 0 0 0 0 0 0 0 0 0 .4 0"/><feOffset dx="4.0" dy="4.0" in="blurOut2" result="blurOut3"/><feBlend in="SourceGraphic" in2="blurOut3" mode="normal"/></filter></defs><g><!--MD5=[77436a392c2bd073a69130669fb11e28]
cluster unnamed--><polygon fill="#FFFFFF" filter="url(#fusnt4pf4dplg)" points="14,16,86,16,93,38.4883,356,38.4883,356,112,14,112,14,16" style="stroke: #000000; stroke-width: 1.5;"/><line style="stroke: #000000; stroke-width: 1.5;" x1="14" x2="93" y1="38.4883" y2="38.4883"/><text fill="#000000" font-family="sans-serif" font-size="14" font-weight="bold" lengthAdjust="spacingAndGlyphs" textLength="66" x="18" y="31.5352">unnamed</text><!--MD5=[3aff69df98fd7ccc2564e7beb6a2fb92]
class unnamed.ExplicitMsgProgram--><a href="ExplicitMsgProgram.html" target="_top" title="ExplicitMsgProgram.html" xlink:actuate="onRequest" xlink:href="ExplicitMsgProgram.html" xlink:show="new" xlink:title="ExplicitMsgProgram.html" xlink:type="simple"><rect fill="#FEFECE" filter="url(#fusnt4pf4dplg)" height="60.9551" id="unnamed.ExplicitMsgProgram" style="stroke: #A80036; stroke-width: 1.5;" width="145" x="202.5" y="43"/><ellipse cx="217.5" cy="59" fill="#ADD1B2" rx="11" ry="11" style="stroke: #A80036; stroke-width: 1.0;"/><path d="M219.9731,65.1431 Q219.3921,65.4419 218.7529,65.5913 Q218.1138,65.7407 217.4082,65.7407 Q214.9014,65.7407 213.5815,64.0889 Q212.2617,62.437 212.2617,59.3159 Q212.2617,56.1865 213.5815,54.5347 Q214.9014,52.8828 217.4082,52.8828 Q218.1138,52.8828 218.7612,53.0322 Q219.4087,53.1816 219.9731,53.4805 L219.9731,56.2031 Q219.3423,55.6221 218.7488,55.3523 Q218.1553,55.0825 217.5244,55.0825 Q216.1797,55.0825 215.4949,56.1492 Q214.8101,57.2158 214.8101,59.3159 Q214.8101,61.4077 215.4949,62.4744 Q216.1797,63.541 217.5244,63.541 Q218.1553,63.541 218.7488,63.2712 Q219.3423,63.0015 219.9731,62.4204 Z "/><text fill="#000000" font-family="sans-serif" font-size="12" lengthAdjust="spacingAndGlyphs" textLength="113" x="231.5" y="63.5352">ExplicitMsgProgram</text><line style="stroke: #A80036; stroke-width: 1.5;" x1="203.5" x2="346.5" y1="75" y2="75"/><line style="stroke: #A80036; stroke-width: 1.5;" x1="203.5" x2="346.5" y1="83" y2="83"/><ellipse cx="213.5" cy="94" fill="#84BE84" rx="3" ry="3" style="stroke: #038048; stroke-width: 1.0;"/><text fill="#000000" font-family="sans-serif" font-size="11" lengthAdjust="spacingAndGlyphs" text-decoration="underline" textLength="103" x="222.5" y="97.6348">main(String[]): void</text></a><!--MD5=[01074a2ea651545f3f970bf96d558ef2]
class unnamed.ImplicitMsgProgram--><a href="ImplicitMsgProgram.html" target="_top" title="ImplicitMsgProgram.html" xlink:actuate="onRequest" xlink:href="ImplicitMsgProgram.html" xlink:show="new" xlink:title="ImplicitMsgProgram.html" xlink:type="simple"><rect fill="#FEFECE" filter="url(#fusnt4pf4dplg)" height="60.9551" id="unnamed.ImplicitMsgProgram" style="stroke: #A80036; stroke-width: 1.5;" width="145" x="22.5" y="43"/><ellipse cx="37.5" cy="59" fill="#ADD1B2" rx="11" ry="11" style="stroke: #A80036; stroke-width: 1.0;"/><path d="M39.9731,65.1431 Q39.3921,65.4419 38.7529,65.5913 Q38.1138,65.7407 37.4082,65.7407 Q34.9014,65.7407 33.5815,64.0889 Q32.2617,62.437 32.2617,59.3159 Q32.2617,56.1865 33.5815,54.5347 Q34.9014,52.8828 37.4082,52.8828 Q38.1138,52.8828 38.7612,53.0322 Q39.4087,53.1816 39.9731,53.4805 L39.9731,56.2031 Q39.3423,55.6221 38.7488,55.3523 Q38.1553,55.0825 37.5244,55.0825 Q36.1797,55.0825 35.4949,56.1492 Q34.8101,57.2158 34.8101,59.3159 Q34.8101,61.4077 35.4949,62.4744 Q36.1797,63.541 37.5244,63.541 Q38.1553,63.541 38.7488,63.2712 Q39.3423,63.0015 39.9731,62.4204 Z "/><text fill="#000000" font-family="sans-serif" font-size="12" lengthAdjust="spacingAndGlyphs" textLength="113" x="51.5" y="63.5352">ImplicitMsgProgram</text><line style="stroke: #A80036; stroke-width: 1.5;" x1="23.5" x2="166.5" y1="75" y2="75"/><line style="stroke: #A80036; stroke-width: 1.5;" x1="23.5" x2="166.5" y1="83" y2="83"/><ellipse cx="33.5" cy="94" fill="#84BE84" rx="3" ry="3" style="stroke: #038048; stroke-width: 1.0;"/><text fill="#000000" font-family="sans-serif" font-size="11" lengthAdjust="spacingAndGlyphs" text-decoration="underline" textLength="103" x="42.5" y="97.6348">main(String[]): void</text></a><text fill="#888888" font-family="sans-serif" font-size="10" lengthAdjust="spacingAndGlyphs" textLength="182" x="100" y="139.668">UMLDoclet 2.0.9, PlantUML 1.2020.08</text><!--MD5=[02ab8861c43313dd3c50c323c7e517dd]
@startuml
    namespace unnamed {

        class ExplicitMsgProgram [[ExplicitMsgProgram.html]] {
            {static} +main(String[]): void
        }

        class ImplicitMsgProgram [[ImplicitMsgProgram.html]] {
            {static} +main(String[]): void
        }

    }

    center footer UMLDoclet 2.0.9, PlantUML 1.2020.08
@enduml

PlantUML version 1.2020.08(Sun Apr 26 16:08:22 CEST 2020)
(APACHE source distribution)
Java Runtime: OpenJDK Runtime Environment
JVM: OpenJDK 64-Bit Server VM
Java Version: 14.0.2+12-46
Operating System: Mac OS X
Default Encoding: UTF-8
Language: fr
Country: FR
--></g></svg>