<?xml version="1.0" encoding="UTF-8" standalone="no"?><svg xmlns="http://www.w3.org/2000/svg" xmlns:xlink="http://www.w3.org/1999/xlink" contentScriptType="application/ecmascript" contentStyleType="text/css" height="258px" preserveAspectRatio="none" style="width:299px;height:258px;" version="1.1" viewBox="0 0 299 258" width="299px" zoomAndPan="magnify"><defs><filter height="300%" id="fumy7w8lhgoum" width="300%" x="-1" y="-1"><feGaussianBlur result="blurOut" stdDeviation="2.0"/><feColorMatrix in="blurOut" result="blurOut2" type="matrix" values="0 0 0 0 0 0 0 0 0 0 0 0 0 0 0 0 0 0 .4 0"/><feOffset dx="4.0" dy="4.0" in="blurOut2" result="blurOut3"/><feBlend in="SourceGraphic" in2="blurOut3" mode="normal"/></filter></defs><g><!--MD5=[961919f148eba1ffd3107d154ff677de]
class de.re.eeip.discoverdevices.DiscoverDevices.ListenerThread--><a href="DiscoverDevices.ListenerThread.html" target="_top" title="DiscoverDevices.ListenerThread.html" xlink:actuate="onRequest" xlink:href="DiscoverDevices.ListenerThread.html" xlink:show="new" xlink:title="DiscoverDevices.ListenerThread.html" xlink:type="simple"><rect fill="#FEFECE" filter="url(#fumy7w8lhgoum)" height="119.041" id="de.re.eeip.discoverdevices.DiscoverDevices.ListenerThread" style="stroke: #A80036; stroke-width: 1.5;" width="248" x="6" y="106"/><ellipse cx="21" cy="125.1328" fill="#ADD1B2" rx="11" ry="11" style="stroke: #A80036; stroke-width: 1.0;"/><path d="M23.4731,131.2759 Q22.8921,131.5747 22.2529,131.7241 Q21.6138,131.8735 20.9082,131.8735 Q18.4014,131.8735 17.0815,130.2217 Q15.7617,128.5698 15.7617,125.4487 Q15.7617,122.3193 17.0815,120.6675 Q18.4014,119.0156 20.9082,119.0156 Q21.6138,119.0156 22.2612,119.165 Q22.9087,119.3145 23.4731,119.6133 L23.4731,122.3359 Q22.8423,121.7549 22.2488,121.4851 Q21.6553,121.2153 21.0244,121.2153 Q19.6797,121.2153 18.9949,122.282 Q18.3101,123.3486 18.3101,125.4487 Q18.3101,127.5405 18.9949,128.6072 Q19.6797,129.6738 21.0244,129.6738 Q21.6553,129.6738 22.2488,129.4041 Q22.8423,129.1343 23.4731,128.5532 Z "/><text fill="#000000" font-family="sans-serif" font-size="14" lengthAdjust="spacingAndGlyphs" textLength="216" x="35" y="124.5352">DiscoverDevices.ListenerThread</text><text fill="#000000" font-family="sans-serif" font-size="10" lengthAdjust="spacingAndGlyphs" textLength="128" x="79" y="137.1563">de.re.eeip.discoverdevices</text><line style="stroke: #A80036; stroke-width: 1.5;" x1="7" x2="253" y1="144.2656" y2="144.2656"/><polygon fill="none" points="17,151.2656,13,157.2656,21,157.2656" style="stroke: #1963A0; stroke-width: 1.0;"/><text fill="#000000" font-family="sans-serif" font-size="11" lengthAdjust="spacingAndGlyphs" textLength="55" x="26" y="158.9004">buf: byte[]</text><polygon fill="none" points="17,164.2207,13,170.2207,21,170.2207" style="stroke: #1963A0; stroke-width: 1.0;"/><text fill="#000000" font-family="sans-serif" font-size="11" lengthAdjust="spacingAndGlyphs" textLength="128" x="26" y="171.8555">socket: DatagramSocket</text><rect fill="none" height="6" style="stroke: #C82930; stroke-width: 1.0;" width="6" x="14" y="178.1758"/><text fill="#000000" font-family="sans-serif" font-size="11" lengthAdjust="spacingAndGlyphs" textLength="78" x="26" y="184.8105">outputPort: int</text><line style="stroke: #A80036; stroke-width: 1.5;" x1="7" x2="253" y1="191.1309" y2="191.1309"/><ellipse cx="17" cy="202.1309" fill="#84BE84" rx="3" ry="3" style="stroke: #038048; stroke-width: 1.0;"/><text fill="#000000" font-family="sans-serif" font-size="11" lengthAdjust="spacingAndGlyphs" textLength="103" x="26" y="205.7656">ListenerThread(int)</text><ellipse cx="17" cy="215.0859" fill="#84BE84" rx="3" ry="3" style="stroke: #038048; stroke-width: 1.0;"/><text fill="#000000" font-family="sans-serif" font-size="11" lengthAdjust="spacingAndGlyphs" textLength="56" x="26" y="218.7207">run(): void</text></a><!--MD5=[0d73d898558f5941c48aa254e51fef11]
class java.lang.Thread--><rect fill="#FEFECE" filter="url(#fumy7w8lhgoum)" height="38.2656" id="java.lang.Thread" style="stroke: #A80036; stroke-width: 1.5;" width="81" x="11.5" y="8"/><ellipse cx="26.5" cy="27.1328" fill="#ADD1B2" rx="11" ry="11" style="stroke: #A80036; stroke-width: 1.0;"/><path d="M28.9731,33.2759 Q28.3921,33.5747 27.7529,33.7241 Q27.1138,33.8735 26.4082,33.8735 Q23.9014,33.8735 22.5815,32.2217 Q21.2617,30.5698 21.2617,27.4487 Q21.2617,24.3193 22.5815,22.6675 Q23.9014,21.0156 26.4082,21.0156 Q27.1138,21.0156 27.7612,21.165 Q28.4087,21.3145 28.9731,21.6133 L28.9731,24.3359 Q28.3423,23.7549 27.7488,23.4851 Q27.1553,23.2153 26.5244,23.2153 Q25.1797,23.2153 24.4949,24.282 Q23.8101,25.3486 23.8101,27.4487 Q23.8101,29.5405 24.4949,30.6072 Q25.1797,31.6738 26.5244,31.6738 Q27.1553,31.6738 27.7488,31.4041 Q28.3423,31.1343 28.9731,30.5532 Z "/><text fill="#000000" font-family="sans-serif" font-size="14" lengthAdjust="spacingAndGlyphs" textLength="49" x="40.5" y="26.5352">Thread</text><text fill="#000000" font-family="sans-serif" font-size="10" lengthAdjust="spacingAndGlyphs" textLength="44" x="43" y="39.1563">java.lang</text><!--MD5=[32a3cdfcded3fda9bf281289e3d34cd1]
class de.re.eeip.discoverdevices.DiscoverDevices--><a href="DiscoverDevices.html" target="_top" title="DiscoverDevices.html" xlink:actuate="onRequest" xlink:href="DiscoverDevices.html" xlink:show="new" xlink:title="DiscoverDevices.html" xlink:type="simple"><rect fill="#FEFECE" filter="url(#fumy7w8lhgoum)" height="38.2656" id="de.re.eeip.discoverdevices.DiscoverDevices" style="stroke: #A80036; stroke-width: 1.5;" width="160" x="128" y="8"/><ellipse cx="143" cy="27.1328" fill="#ADD1B2" rx="11" ry="11" style="stroke: #A80036; stroke-width: 1.0;"/><path d="M145.4731,33.2759 Q144.8921,33.5747 144.2529,33.7241 Q143.6138,33.8735 142.9082,33.8735 Q140.4014,33.8735 139.0815,32.2217 Q137.7617,30.5698 137.7617,27.4487 Q137.7617,24.3193 139.0815,22.6675 Q140.4014,21.0156 142.9082,21.0156 Q143.6138,21.0156 144.2612,21.165 Q144.9087,21.3145 145.4731,21.6133 L145.4731,24.3359 Q144.8423,23.7549 144.2488,23.4851 Q143.6553,23.2153 143.0244,23.2153 Q141.6797,23.2153 140.9949,24.282 Q140.3101,25.3486 140.3101,27.4487 Q140.3101,29.5405 140.9949,30.6072 Q141.6797,31.6738 143.0244,31.6738 Q143.6553,31.6738 144.2488,31.4041 Q144.8423,31.1343 145.4731,30.5532 Z "/><text fill="#000000" font-family="sans-serif" font-size="14" lengthAdjust="spacingAndGlyphs" textLength="109" x="166.5" y="26.5352">DiscoverDevices</text><text fill="#000000" font-family="sans-serif" font-size="10" lengthAdjust="spacingAndGlyphs" textLength="128" x="157" y="39.1563">de.re.eeip.discoverdevices</text></a><!--MD5=[febcb5caabf2c7555d29c73fbdc7e813]
reverse link java.lang.Thread to de.re.eeip.discoverdevices.DiscoverDevices.ListenerThread--><path d="M72.8524,64.0264 C80.111,76.9151 88.449,91.7204 96.4718,105.966 " fill="none" id="java.lang.Thread&lt;-de.re.eeip.discoverdevices.DiscoverDevices.ListenerThread" style="stroke: #A80036; stroke-width: 1.0;"/><polygon fill="none" points="66.5605,67.1193,62.8456,46.2578,78.7591,60.2493,66.5605,67.1193" style="stroke: #A80036; stroke-width: 1.0;"/><!--MD5=[188dfacc77eca251486441ef44311b10]
reverse link de.re.eeip.discoverdevices.DiscoverDevices to de.re.eeip.discoverdevices.DiscoverDevices.ListenerThread--><path d="M189.6624,59.561 C181.8552,73.4238 172.4948,90.0444 163.5282,105.966 " fill="none" id="de.re.eeip.discoverdevices.DiscoverDevices&lt;-de.re.eeip.discoverdevices.DiscoverDevices.ListenerThread" style="stroke: #A80036; stroke-width: 1.0;"/><ellipse cx="193.2288" cy="53.2284" fill="#FFFFFF" rx="8" ry="8" style="stroke: #A80036; stroke-width: 1.0;"/><line style="stroke: #A80036; stroke-width: 1.0;" x1="189.3031" x2="197.1544" y1="60.199" y2="46.2578"/><line style="stroke: #A80036; stroke-width: 1.0;" x1="186.2582" x2="200.1994" y1="49.3028" y2="57.154"/><text fill="#888888" font-family="sans-serif" font-size="10" lengthAdjust="spacingAndGlyphs" textLength="182" x="62" y="244.668">UMLDoclet 2.0.9, PlantUML 1.2020.08</text><!--MD5=[d554bdc351acb2f80f58a457fb464719]
@startuml
    set namespaceSeparator none
    hide empty fields
    hide empty methods

    class "<size:14>DiscoverDevices.ListenerThread\n<size:10>de.re.eeip.discoverdevices" as de.re.eeip.discoverdevices.DiscoverDevices.ListenerThread [[DiscoverDevices.ListenerThread.html]] {
        ~buf: byte[]
        ~socket: DatagramSocket
        -outputPort: int
        +ListenerThread(int)
        +run(): void
    }

    class "<size:14>Thread\n<size:10>java.lang" as java.lang.Thread
    class "<size:14>DiscoverDevices\n<size:10>de.re.eeip.discoverdevices" as de.re.eeip.discoverdevices.DiscoverDevices [[DiscoverDevices.html]]

    java.lang.Thread <|- - de.re.eeip.discoverdevices.DiscoverDevices.ListenerThread
    de.re.eeip.discoverdevices.DiscoverDevices +- - de.re.eeip.discoverdevices.DiscoverDevices.ListenerThread

    center footer UMLDoclet 2.0.9, PlantUML 1.2020.08
@enduml

PlantUML version 1.2020.08(Sun Apr 26 16:08:22 CEST 2020)
(APACHE source distribution)
Java Runtime: OpenJDK Runtime Environment
JVM: OpenJDK 64-Bit Server VM
Java Version: 14.0.2+12-46
Operating System: Mac OS X
Default Encoding: UTF-8
Language: fr
Country: FR
--></g></svg>