<?xml version="1.0" encoding="UTF-8" standalone="no"?><svg xmlns="http://www.w3.org/2000/svg" xmlns:xlink="http://www.w3.org/1999/xlink" contentScriptType="application/ecmascript" contentStyleType="text/css" height="330px" preserveAspectRatio="none" style="width:265px;height:330px;" version="1.1" viewBox="0 0 265 330" width="265px" zoomAndPan="magnify"><defs><filter height="300%" id="fqtgpansolhzw" width="300%" x="-1" y="-1"><feGaussianBlur result="blurOut" stdDeviation="2.0"/><feColorMatrix in="blurOut" result="blurOut2" type="matrix" values="0 0 0 0 0 0 0 0 0 0 0 0 0 0 0 0 0 0 .4 0"/><feOffset dx="4.0" dy="4.0" in="blurOut2" result="blurOut3"/><feBlend in="SourceGraphic" in2="blurOut3" mode="normal"/></filter></defs><g><!--MD5=[32a3cdfcded3fda9bf281289e3d34cd1]
class de.re.eeip.discoverdevices.DiscoverDevices--><a href="DiscoverDevices.html" target="_top" title="DiscoverDevices.html" xlink:actuate="onRequest" xlink:href="DiscoverDevices.html" xlink:show="new" xlink:title="DiscoverDevices.html" xlink:type="simple"><rect fill="#FEFECE" filter="url(#fqtgpansolhzw)" height="93.1309" id="de.re.eeip.discoverdevices.DiscoverDevices" style="stroke: #A80036; stroke-width: 1.5;" width="245" x="7.5" y="106"/><ellipse cx="61.75" cy="125.1328" fill="#ADD1B2" rx="11" ry="11" style="stroke: #A80036; stroke-width: 1.0;"/><path d="M64.2231,131.2759 Q63.6421,131.5747 63.0029,131.7241 Q62.3638,131.8735 61.6582,131.8735 Q59.1514,131.8735 57.8315,130.2217 Q56.5117,128.5698 56.5117,125.4487 Q56.5117,122.3193 57.8315,120.6675 Q59.1514,119.0156 61.6582,119.0156 Q62.3638,119.0156 63.0112,119.165 Q63.6587,119.3145 64.2231,119.6133 L64.2231,122.3359 Q63.5923,121.7549 62.9988,121.4851 Q62.4053,121.2153 61.7744,121.2153 Q60.4297,121.2153 59.7449,122.282 Q59.0601,123.3486 59.0601,125.4487 Q59.0601,127.5405 59.7449,128.6072 Q60.4297,129.6738 61.7744,129.6738 Q62.4053,129.6738 62.9988,129.4041 Q63.5923,129.1343 64.2231,128.5532 Z "/><text fill="#000000" font-family="sans-serif" font-size="14" lengthAdjust="spacingAndGlyphs" textLength="109" x="91.75" y="124.5352">DiscoverDevices</text><text fill="#000000" font-family="sans-serif" font-size="10" lengthAdjust="spacingAndGlyphs" textLength="128" x="82.25" y="137.1563">de.re.eeip.discoverdevices</text><line style="stroke: #A80036; stroke-width: 1.5;" x1="8.5" x2="251.5" y1="144.2656" y2="144.2656"/><rect fill="none" height="6" style="stroke: #C82930; stroke-width: 1.0;" width="6" x="15.5" y="152.2656"/><text fill="#000000" font-family="sans-serif" font-size="11" lengthAdjust="spacingAndGlyphs" textLength="187" x="27.5" y="158.9004">returnValue: List&lt;CipIdentityItem&gt;</text><line style="stroke: #A80036; stroke-width: 1.5;" x1="8.5" x2="251.5" y1="165.2207" y2="165.2207"/><ellipse cx="18.5" cy="176.2207" fill="#84BE84" rx="3" ry="3" style="stroke: #038048; stroke-width: 1.0;"/><text fill="#000000" font-family="sans-serif" font-size="11" lengthAdjust="spacingAndGlyphs" textLength="191" x="27.5" y="179.8555">ListIdentity(): List&lt;CipIdentityItem&gt;</text><ellipse cx="18.5" cy="189.1758" fill="#84BE84" rx="3" ry="3" style="stroke: #038048; stroke-width: 1.0;"/><text fill="#000000" font-family="sans-serif" font-size="11" lengthAdjust="spacingAndGlyphs" textLength="219" x="27.5" y="192.8105">getDeviceIdentity(String): CipIdentityItem</text></a><!--MD5=[0d73d898558f5941c48aa254e51fef11]
class java.lang.Thread--><rect fill="#FEFECE" filter="url(#fqtgpansolhzw)" height="38.2656" id="java.lang.Thread" style="stroke: #A80036; stroke-width: 1.5;" width="81" x="89.5" y="8"/><ellipse cx="104.5" cy="27.1328" fill="#ADD1B2" rx="11" ry="11" style="stroke: #A80036; stroke-width: 1.0;"/><path d="M106.9731,33.2759 Q106.3921,33.5747 105.7529,33.7241 Q105.1138,33.8735 104.4082,33.8735 Q101.9014,33.8735 100.5815,32.2217 Q99.2617,30.5698 99.2617,27.4487 Q99.2617,24.3193 100.5815,22.6675 Q101.9014,21.0156 104.4082,21.0156 Q105.1138,21.0156 105.7612,21.165 Q106.4087,21.3145 106.9731,21.6133 L106.9731,24.3359 Q106.3423,23.7549 105.7488,23.4851 Q105.1553,23.2153 104.5244,23.2153 Q103.1797,23.2153 102.4949,24.282 Q101.8101,25.3486 101.8101,27.4487 Q101.8101,29.5405 102.4949,30.6072 Q103.1797,31.6738 104.5244,31.6738 Q105.1553,31.6738 105.7488,31.4041 Q106.3423,31.1343 106.9731,30.5532 Z "/><text fill="#000000" font-family="sans-serif" font-size="14" lengthAdjust="spacingAndGlyphs" textLength="49" x="118.5" y="26.5352">Thread</text><text fill="#000000" font-family="sans-serif" font-size="10" lengthAdjust="spacingAndGlyphs" textLength="44" x="121" y="39.1563">java.lang</text><!--MD5=[961919f148eba1ffd3107d154ff677de]
class de.re.eeip.discoverdevices.DiscoverDevices.ListenerThread--><a href="DiscoverDevices.ListenerThread.html" target="_top" title="DiscoverDevices.ListenerThread.html" xlink:actuate="onRequest" xlink:href="DiscoverDevices.ListenerThread.html" xlink:show="new" xlink:title="DiscoverDevices.ListenerThread.html" xlink:type="simple"><rect fill="#FEFECE" filter="url(#fqtgpansolhzw)" height="38.2656" id="de.re.eeip.discoverdevices.DiscoverDevices.ListenerThread" style="stroke: #A80036; stroke-width: 1.5;" width="248" x="6" y="259"/><ellipse cx="21" cy="278.1328" fill="#ADD1B2" rx="11" ry="11" style="stroke: #A80036; stroke-width: 1.0;"/><path d="M23.4731,284.2759 Q22.8921,284.5747 22.2529,284.7241 Q21.6138,284.8735 20.9082,284.8735 Q18.4014,284.8735 17.0815,283.2217 Q15.7617,281.5698 15.7617,278.4487 Q15.7617,275.3193 17.0815,273.6675 Q18.4014,272.0156 20.9082,272.0156 Q21.6138,272.0156 22.2612,272.165 Q22.9087,272.3145 23.4731,272.6133 L23.4731,275.3359 Q22.8423,274.7549 22.2488,274.4851 Q21.6553,274.2153 21.0244,274.2153 Q19.6797,274.2153 18.9949,275.282 Q18.3101,276.3486 18.3101,278.4487 Q18.3101,280.5405 18.9949,281.6072 Q19.6797,282.6738 21.0244,282.6738 Q21.6553,282.6738 22.2488,282.4041 Q22.8423,282.1343 23.4731,281.5532 Z "/><text fill="#000000" font-family="sans-serif" font-size="14" lengthAdjust="spacingAndGlyphs" textLength="216" x="35" y="277.5352">DiscoverDevices.ListenerThread</text><text fill="#000000" font-family="sans-serif" font-size="10" lengthAdjust="spacingAndGlyphs" textLength="128" x="79" y="290.1563">de.re.eeip.discoverdevices</text></a><!--MD5=[84c4396f48d09176b59761a2de88ea12]
reverse link java.lang.Thread to de.re.eeip.discoverdevices.DiscoverDevices--><path d="M130,66.4703 C130,78.9583 130,92.8797 130,105.8228 " fill="none" id="java.lang.Thread&lt;-de.re.eeip.discoverdevices.DiscoverDevices" style="stroke: #A80036; stroke-width: 1.0;"/><polygon fill="none" points="123.0001,66.0608,130,46.0607,137.0001,66.0607,123.0001,66.0608" style="stroke: #A80036; stroke-width: 1.0;"/><!--MD5=[188dfacc77eca251486441ef44311b10]
reverse link de.re.eeip.discoverdevices.DiscoverDevices to de.re.eeip.discoverdevices.DiscoverDevices.ListenerThread--><path d="M130,214.5163 C130,230.6236 130,246.7953 130,258.7855 " fill="none" id="de.re.eeip.discoverdevices.DiscoverDevices&lt;-de.re.eeip.discoverdevices.DiscoverDevices.ListenerThread" style="stroke: #A80036; stroke-width: 1.0;"/><ellipse cx="130.0001" cy="207.2316" fill="#FFFFFF" rx="8" ry="8" style="stroke: #A80036; stroke-width: 1.0;"/><line style="stroke: #A80036; stroke-width: 1.0;" x1="130.0002" x2="130" y1="215.2316" y2="199.2316"/><line style="stroke: #A80036; stroke-width: 1.0;" x1="122.0001" x2="138.0001" y1="207.2317" y2="207.2315"/><text fill="#888888" font-family="sans-serif" font-size="10" lengthAdjust="spacingAndGlyphs" textLength="182" x="45" y="316.668">UMLDoclet 2.0.9, PlantUML 1.2020.08</text><!--MD5=[b59ac27880a2ece02b5c607b9b1ec3b3]
@startuml
    set namespaceSeparator none
    hide empty fields
    hide empty methods

    class "<size:14>DiscoverDevices\n<size:10>de.re.eeip.discoverdevices" as de.re.eeip.discoverdevices.DiscoverDevices [[DiscoverDevices.html]] {
        -returnValue: List<CipIdentityItem>
        +ListIdentity(): List<CipIdentityItem>
        +getDeviceIdentity(String): CipIdentityItem
    }

    class "<size:14>Thread\n<size:10>java.lang" as java.lang.Thread
    class "<size:14>DiscoverDevices.ListenerThread\n<size:10>de.re.eeip.discoverdevices" as de.re.eeip.discoverdevices.DiscoverDevices.ListenerThread [[DiscoverDevices.ListenerThread.html]]

    java.lang.Thread <|- - de.re.eeip.discoverdevices.DiscoverDevices
    de.re.eeip.discoverdevices.DiscoverDevices +- - de.re.eeip.discoverdevices.DiscoverDevices.ListenerThread

    center footer UMLDoclet 2.0.9, PlantUML 1.2020.08
@enduml

PlantUML version 1.2020.08(Sun Apr 26 16:08:22 CEST 2020)
(APACHE source distribution)
Java Runtime: OpenJDK Runtime Environment
JVM: OpenJDK 64-Bit Server VM
Java Version: 14.0.2+12-46
Operating System: Mac OS X
Default Encoding: UTF-8
Language: fr
Country: FR
--></g></svg>