<?xml version="1.0" encoding="UTF-8" standalone="no"?><svg xmlns="http://www.w3.org/2000/svg" xmlns:xlink="http://www.w3.org/1999/xlink" contentScriptType="application/ecmascript" contentStyleType="text/css" height="836px" preserveAspectRatio="none" style="width:416px;height:836px;" version="1.1" viewBox="0 0 416 836" width="416px" zoomAndPan="magnify"><defs><filter height="300%" id="fftjbzheeob74" width="300%" x="-1" y="-1"><feGaussianBlur result="blurOut" stdDeviation="2.0"/><feColorMatrix in="blurOut" result="blurOut2" type="matrix" values="0 0 0 0 0 0 0 0 0 0 0 0 0 0 0 0 0 0 .4 0"/><feOffset dx="4.0" dy="4.0" in="blurOut2" result="blurOut3"/><feBlend in="SourceGraphic" in2="blurOut3" mode="normal"/></filter></defs><g><!--MD5=[7f008fffe3e9293d884782a8a83318f5]
cluster de.re.eeip.discoverdevices--><polygon fill="#FFFFFF" filter="url(#fftjbzheeob74)" points="14,500,203,500,210,522.4883,276,522.4883,276,795,14,795,14,500" style="stroke: #000000; stroke-width: 1.5;"/><line style="stroke: #000000; stroke-width: 1.5;" x1="14" x2="210" y1="522.4883" y2="522.4883"/><text fill="#000000" font-family="sans-serif" font-size="14" font-weight="bold" lengthAdjust="spacingAndGlyphs" textLength="183" x="18" y="515.5352">de.re.eeip.discoverdevices</text><!--MD5=[aa8f7b917213fcc1c2766e2d59b49067]
cluster java.lang--><polygon fill="#FFFFFF" filter="url(#fftjbzheeob74)" points="14,16,83,16,90,38.4883,394,38.4883,394,475,14,475,14,16" style="stroke: #000000; stroke-width: 1.5;"/><line style="stroke: #000000; stroke-width: 1.5;" x1="14" x2="90" y1="38.4883" y2="38.4883"/><text fill="#000000" font-family="sans-serif" font-size="14" font-weight="bold" lengthAdjust="spacingAndGlyphs" textLength="63" x="18" y="31.5352">java.lang</text><!--MD5=[32a3cdfcded3fda9bf281289e3d34cd1]
class de.re.eeip.discoverdevices.DiscoverDevices--><a href="DiscoverDevices.html" target="_top" title="DiscoverDevices.html" xlink:actuate="onRequest" xlink:href="DiscoverDevices.html" xlink:show="new" xlink:title="DiscoverDevices.html" xlink:type="simple"><rect fill="#FEFECE" filter="url(#fftjbzheeob74)" height="86.8652" id="de.re.eeip.discoverdevices.DiscoverDevices" style="stroke: #A80036; stroke-width: 1.5;" width="245" x="22.5" y="527"/><ellipse cx="94.25" cy="543" fill="#ADD1B2" rx="11" ry="11" style="stroke: #A80036; stroke-width: 1.0;"/><path d="M96.7231,549.1431 Q96.1421,549.4419 95.5029,549.5913 Q94.8638,549.7407 94.1582,549.7407 Q91.6514,549.7407 90.3315,548.0889 Q89.0117,546.437 89.0117,543.3159 Q89.0117,540.1865 90.3315,538.5347 Q91.6514,536.8828 94.1582,536.8828 Q94.8638,536.8828 95.5112,537.0322 Q96.1587,537.1816 96.7231,537.4805 L96.7231,540.2031 Q96.0923,539.6221 95.4988,539.3523 Q94.9053,539.0825 94.2744,539.0825 Q92.9297,539.0825 92.2449,540.1492 Q91.5601,541.2158 91.5601,543.3159 Q91.5601,545.4077 92.2449,546.4744 Q92.9297,547.541 94.2744,547.541 Q94.9053,547.541 95.4988,547.2712 Q96.0923,547.0015 96.7231,546.4204 Z "/><text fill="#000000" font-family="sans-serif" font-size="12" lengthAdjust="spacingAndGlyphs" textLength="93" x="114.75" y="547.5352">DiscoverDevices</text><line style="stroke: #A80036; stroke-width: 1.5;" x1="23.5" x2="266.5" y1="559" y2="559"/><rect fill="none" height="6" style="stroke: #C82930; stroke-width: 1.0;" width="6" x="30.5" y="567"/><text fill="#000000" font-family="sans-serif" font-size="11" lengthAdjust="spacingAndGlyphs" textLength="187" x="42.5" y="573.6348">returnValue: List&lt;CipIdentityItem&gt;</text><line style="stroke: #A80036; stroke-width: 1.5;" x1="23.5" x2="266.5" y1="579.9551" y2="579.9551"/><ellipse cx="33.5" cy="590.9551" fill="#84BE84" rx="3" ry="3" style="stroke: #038048; stroke-width: 1.0;"/><text fill="#000000" font-family="sans-serif" font-size="11" lengthAdjust="spacingAndGlyphs" textLength="191" x="42.5" y="594.5898">ListIdentity(): List&lt;CipIdentityItem&gt;</text><ellipse cx="33.5" cy="603.9102" fill="#84BE84" rx="3" ry="3" style="stroke: #038048; stroke-width: 1.0;"/><text fill="#000000" font-family="sans-serif" font-size="11" lengthAdjust="spacingAndGlyphs" textLength="219" x="42.5" y="607.5449">getDeviceIdentity(String): CipIdentityItem</text></a><!--MD5=[961919f148eba1ffd3107d154ff677de]
class de.re.eeip.discoverdevices.DiscoverDevices.ListenerThread--><a href="DiscoverDevices.ListenerThread.html" target="_top" title="DiscoverDevices.ListenerThread.html" xlink:actuate="onRequest" xlink:href="DiscoverDevices.ListenerThread.html" xlink:show="new" xlink:title="DiscoverDevices.ListenerThread.html" xlink:type="simple"><rect fill="#FEFECE" filter="url(#fftjbzheeob74)" height="112.7754" id="de.re.eeip.discoverdevices.DiscoverDevices.ListenerThread" style="stroke: #A80036; stroke-width: 1.5;" width="216" x="44" y="674"/><ellipse cx="59" cy="690" fill="#ADD1B2" rx="11" ry="11" style="stroke: #A80036; stroke-width: 1.0;"/><path d="M61.4731,696.1431 Q60.8921,696.4419 60.2529,696.5913 Q59.6138,696.7407 58.9082,696.7407 Q56.4014,696.7407 55.0815,695.0889 Q53.7617,693.437 53.7617,690.3159 Q53.7617,687.1865 55.0815,685.5347 Q56.4014,683.8828 58.9082,683.8828 Q59.6138,683.8828 60.2612,684.0322 Q60.9087,684.1816 61.4731,684.4805 L61.4731,687.2031 Q60.8423,686.6221 60.2488,686.3523 Q59.6553,686.0825 59.0244,686.0825 Q57.6797,686.0825 56.9949,687.1492 Q56.3101,688.2158 56.3101,690.3159 Q56.3101,692.4077 56.9949,693.4744 Q57.6797,694.541 59.0244,694.541 Q59.6553,694.541 60.2488,694.2712 Q60.8423,694.0015 61.4731,693.4204 Z "/><text fill="#000000" font-family="sans-serif" font-size="12" lengthAdjust="spacingAndGlyphs" textLength="184" x="73" y="694.5352">DiscoverDevices.ListenerThread</text><line style="stroke: #A80036; stroke-width: 1.5;" x1="45" x2="259" y1="706" y2="706"/><polygon fill="none" points="55,713,51,719,59,719" style="stroke: #1963A0; stroke-width: 1.0;"/><text fill="#000000" font-family="sans-serif" font-size="11" lengthAdjust="spacingAndGlyphs" textLength="55" x="64" y="720.6348">buf: byte[]</text><polygon fill="none" points="55,725.9551,51,731.9551,59,731.9551" style="stroke: #1963A0; stroke-width: 1.0;"/><text fill="#000000" font-family="sans-serif" font-size="11" lengthAdjust="spacingAndGlyphs" textLength="128" x="64" y="733.5898">socket: DatagramSocket</text><rect fill="none" height="6" style="stroke: #C82930; stroke-width: 1.0;" width="6" x="52" y="739.9102"/><text fill="#000000" font-family="sans-serif" font-size="11" lengthAdjust="spacingAndGlyphs" textLength="78" x="64" y="746.5449">outputPort: int</text><line style="stroke: #A80036; stroke-width: 1.5;" x1="45" x2="259" y1="752.8652" y2="752.8652"/><ellipse cx="55" cy="763.8652" fill="#84BE84" rx="3" ry="3" style="stroke: #038048; stroke-width: 1.0;"/><text fill="#000000" font-family="sans-serif" font-size="11" lengthAdjust="spacingAndGlyphs" textLength="103" x="64" y="767.5">ListenerThread(int)</text><ellipse cx="55" cy="776.8203" fill="#84BE84" rx="3" ry="3" style="stroke: #038048; stroke-width: 1.0;"/><text fill="#000000" font-family="sans-serif" font-size="11" lengthAdjust="spacingAndGlyphs" textLength="56" x="64" y="780.4551">run(): void</text></a><!--MD5=[0d73d898558f5941c48aa254e51fef11]
class java.lang.Thread--><rect fill="#FEFECE" filter="url(#fftjbzheeob74)" height="423.6973" id="java.lang.Thread" style="stroke: #A80036; stroke-width: 1.5;" width="363" x="22.5" y="43"/><ellipse cx="178.75" cy="59" fill="#ADD1B2" rx="11" ry="11" style="stroke: #A80036; stroke-width: 1.0;"/><path d="M181.2231,65.1431 Q180.6421,65.4419 180.0029,65.5913 Q179.3638,65.7407 178.6582,65.7407 Q176.1514,65.7407 174.8315,64.0889 Q173.5117,62.437 173.5117,59.3159 Q173.5117,56.1865 174.8315,54.5347 Q176.1514,52.8828 178.6582,52.8828 Q179.3638,52.8828 180.0112,53.0322 Q180.6587,53.1816 181.2231,53.4805 L181.2231,56.2031 Q180.5923,55.6221 179.9988,55.3523 Q179.4053,55.0825 178.7744,55.0825 Q177.4297,55.0825 176.7449,56.1492 Q176.0601,57.2158 176.0601,59.3159 Q176.0601,61.4077 176.7449,62.4744 Q177.4297,63.541 178.7744,63.541 Q179.4053,63.541 179.9988,63.2712 Q180.5923,63.0015 181.2231,62.4204 Z "/><text fill="#000000" font-family="sans-serif" font-size="12" lengthAdjust="spacingAndGlyphs" textLength="42" x="199.25" y="63.5352">Thread</text><line style="stroke: #A80036; stroke-width: 1.5;" x1="23.5" x2="384.5" y1="75" y2="75"/><rect fill="none" height="6" style="stroke: #C82930; stroke-width: 1.0;" width="6" x="30.5" y="83"/><text fill="#000000" font-family="sans-serif" font-size="11" lengthAdjust="spacingAndGlyphs" textLength="67" x="42.5" y="89.6348">name: String</text><rect fill="none" height="6" style="stroke: #C82930; stroke-width: 1.0;" width="6" x="30.5" y="95.9551"/><text fill="#000000" font-family="sans-serif" font-size="11" lengthAdjust="spacingAndGlyphs" textLength="60" x="42.5" y="102.5898">priority: int</text><rect fill="none" height="6" style="stroke: #C82930; stroke-width: 1.0;" width="6" x="30.5" y="108.9102"/><text fill="#000000" font-family="sans-serif" font-size="11" lengthAdjust="spacingAndGlyphs" textLength="92" x="42.5" y="115.5449">daemon: boolean</text><rect fill="none" height="6" style="stroke: #C82930; stroke-width: 1.0;" width="6" x="30.5" y="121.8652"/><text fill="#000000" font-family="sans-serif" font-size="11" lengthAdjust="spacingAndGlyphs" textLength="110" x="42.5" y="128.5">interrupted: boolean</text><rect fill="none" height="6" style="stroke: #C82930; stroke-width: 1.0;" width="6" x="30.5" y="134.8203"/><text fill="#000000" font-family="sans-serif" font-size="11" lengthAdjust="spacingAndGlyphs" textLength="94" x="42.5" y="141.4551">stillborn: boolean</text><rect fill="none" height="6" style="stroke: #C82930; stroke-width: 1.0;" width="6" x="30.5" y="147.7754"/><text fill="#000000" font-family="sans-serif" font-size="11" lengthAdjust="spacingAndGlyphs" textLength="60" x="42.5" y="154.4102">eetop: long</text><rect fill="none" height="6" style="stroke: #C82930; stroke-width: 1.0;" width="6" x="30.5" y="160.7305"/><text fill="#000000" font-family="sans-serif" font-size="11" lengthAdjust="spacingAndGlyphs" textLength="88" x="42.5" y="167.3652">target: Runnable</text><rect fill="none" height="6" style="stroke: #C82930; stroke-width: 1.0;" width="6" x="30.5" y="173.6855"/><text fill="#000000" font-family="sans-serif" font-size="11" lengthAdjust="spacingAndGlyphs" textLength="111" x="42.5" y="180.3203">group: ThreadGroup</text><rect fill="none" height="6" style="stroke: #C82930; stroke-width: 1.0;" width="6" x="30.5" y="186.6406"/><text fill="#000000" font-family="sans-serif" font-size="11" lengthAdjust="spacingAndGlyphs" textLength="179" x="42.5" y="193.2754">contextClassLoader: ClassLoader</text><rect fill="none" height="6" style="stroke: #C82930; stroke-width: 1.0;" width="6" x="30.5" y="199.5957"/><text fill="#000000" font-family="sans-serif" font-size="11" lengthAdjust="spacingAndGlyphs" textLength="298" x="42.5" y="206.2305">inheritedAccessControlContext: AccessControlContext</text><rect fill="none" height="6" style="stroke: #C82930; stroke-width: 1.0;" width="6" x="30.5" y="212.5508"/><text fill="#000000" font-family="sans-serif" font-size="11" lengthAdjust="spacingAndGlyphs" text-decoration="underline" textLength="115" x="42.5" y="219.1855">threadInitNumber: int</text><polygon fill="none" points="33.5,224.5059,29.5,230.5059,37.5,230.5059" style="stroke: #1963A0; stroke-width: 1.0;"/><text fill="#000000" font-family="sans-serif" font-size="11" lengthAdjust="spacingAndGlyphs" textLength="163" x="42.5" y="232.1406">threadLocals: ThreadLocalMap</text><polygon fill="none" points="33.5,237.4609,29.5,243.4609,37.5,243.4609" style="stroke: #1963A0; stroke-width: 1.0;"/><text fill="#000000" font-family="sans-serif" font-size="11" lengthAdjust="spacingAndGlyphs" textLength="223" x="42.5" y="245.0957">inheritableThreadLocals: ThreadLocalMap</text><rect fill="none" height="6" style="stroke: #C82930; stroke-width: 1.0;" width="6" x="30.5" y="251.416"/><text fill="#000000" font-family="sans-serif" font-size="11" lengthAdjust="spacingAndGlyphs" textLength="79" x="42.5" y="258.0508">stackSize: long</text><rect fill="none" height="6" style="stroke: #C82930; stroke-width: 1.0;" width="6" x="30.5" y="264.3711"/><text fill="#000000" font-family="sans-serif" font-size="11" lengthAdjust="spacingAndGlyphs" textLength="44" x="42.5" y="271.0059">tid: long</text><rect fill="none" height="6" style="stroke: #C82930; stroke-width: 1.0;" width="6" x="30.5" y="277.3262"/><text fill="#000000" font-family="sans-serif" font-size="11" lengthAdjust="spacingAndGlyphs" text-decoration="underline" textLength="127" x="42.5" y="283.9609">threadSeqNumber: long</text><rect fill="none" height="6" style="stroke: #C82930; stroke-width: 1.0;" width="6" x="30.5" y="290.2813"/><text fill="#000000" font-family="sans-serif" font-size="11" lengthAdjust="spacingAndGlyphs" textLength="88" x="42.5" y="296.916">threadStatus: int</text><polygon fill="none" points="33.5,302.2363,29.5,308.2363,37.5,308.2363" style="stroke: #1963A0; stroke-width: 1.0;"/><text fill="#000000" font-family="sans-serif" font-size="11" lengthAdjust="spacingAndGlyphs" textLength="104" x="42.5" y="309.8711">parkBlocker: Object</text><rect fill="none" height="6" style="stroke: #C82930; stroke-width: 1.0;" width="6" x="30.5" y="316.1914"/><text fill="#000000" font-family="sans-serif" font-size="11" lengthAdjust="spacingAndGlyphs" textLength="113" x="42.5" y="322.8262">blocker: Interruptible</text><rect fill="none" height="6" style="stroke: #C82930; stroke-width: 1.0;" width="6" x="30.5" y="329.1465"/><text fill="#000000" font-family="sans-serif" font-size="11" lengthAdjust="spacingAndGlyphs" textLength="106" x="42.5" y="335.7813">blockerLock: Object</text><ellipse cx="33.5" cy="345.1016" fill="none" rx="3" ry="3" style="stroke: #038048; stroke-width: 1.0;"/><text fill="#000000" font-family="sans-serif" font-size="11" lengthAdjust="spacingAndGlyphs" text-decoration="underline" textLength="95" x="42.5" y="348.7363">MIN_PRIORITY: int</text><ellipse cx="33.5" cy="358.0566" fill="none" rx="3" ry="3" style="stroke: #038048; stroke-width: 1.0;"/><text fill="#000000" font-family="sans-serif" font-size="11" lengthAdjust="spacingAndGlyphs" text-decoration="underline" textLength="108" x="42.5" y="361.6914">NORM_PRIORITY: int</text><ellipse cx="33.5" cy="371.0117" fill="none" rx="3" ry="3" style="stroke: #038048; stroke-width: 1.0;"/><text fill="#000000" font-family="sans-serif" font-size="11" lengthAdjust="spacingAndGlyphs" text-decoration="underline" textLength="99" x="42.5" y="374.6465">MAX_PRIORITY: int</text><rect fill="none" height="6" style="stroke: #C82930; stroke-width: 1.0;" width="6" x="30.5" y="380.9668"/><text fill="#000000" font-family="sans-serif" font-size="11" lengthAdjust="spacingAndGlyphs" text-decoration="underline" textLength="233" x="42.5" y="387.6016">EMPTY_STACK_TRACE: StackTraceElement[]</text><rect fill="none" height="6" style="stroke: #C82930; stroke-width: 1.0;" width="6" x="30.5" y="393.9219"/><text fill="#000000" font-family="sans-serif" font-size="11" lengthAdjust="spacingAndGlyphs" textLength="299" x="42.5" y="400.5566">uncaughtExceptionHandler: UncaughtExceptionHandler</text><rect fill="none" height="6" style="stroke: #C82930; stroke-width: 1.0;" width="6" x="30.5" y="406.877"/><text fill="#000000" font-family="sans-serif" font-size="11" lengthAdjust="spacingAndGlyphs" text-decoration="underline" textLength="337" x="42.5" y="413.5117">defaultUncaughtExceptionHandler: UncaughtExceptionHandler</text><polygon fill="none" points="33.5,418.832,29.5,424.832,37.5,424.832" style="stroke: #1963A0; stroke-width: 1.0;"/><text fill="#000000" font-family="sans-serif" font-size="11" lengthAdjust="spacingAndGlyphs" textLength="162" x="42.5" y="426.4668">threadLocalRandomSeed: long</text><polygon fill="none" points="33.5,431.7871,29.5,437.7871,37.5,437.7871" style="stroke: #1963A0; stroke-width: 1.0;"/><text fill="#000000" font-family="sans-serif" font-size="11" lengthAdjust="spacingAndGlyphs" textLength="158" x="42.5" y="439.4219">threadLocalRandomProbe: int</text><polygon fill="none" points="33.5,444.7422,29.5,450.7422,37.5,450.7422" style="stroke: #1963A0; stroke-width: 1.0;"/><text fill="#000000" font-family="sans-serif" font-size="11" lengthAdjust="spacingAndGlyphs" textLength="208" x="42.5" y="452.377">threadLocalRandomSecondarySeed: int</text><line style="stroke: #A80036; stroke-width: 1.5;" x1="23.5" x2="384.5" y1="458.6973" y2="458.6973"/><!--MD5=[84c4396f48d09176b59761a2de88ea12]
reverse link java.lang.Thread to de.re.eeip.discoverdevices.DiscoverDevices--><path d="M160.6234,486.9546 C157.8939,501.5503 155.3697,515.0484 153.1814,526.7502 " fill="none" id="java.lang.Thread&lt;-de.re.eeip.discoverdevices.DiscoverDevices" style="stroke: #A80036; stroke-width: 1.0;"/><polygon fill="none" points="153.7616,485.566,164.3188,467.1935,167.5231,488.1395,153.7616,485.566" style="stroke: #A80036; stroke-width: 1.0;"/><!--MD5=[febcb5caabf2c7555d29c73fbdc7e813]
reverse link java.lang.Thread to de.re.eeip.discoverdevices.DiscoverDevices.ListenerThread--><path d="M299.8467,486.8936 C305.6609,530.177 303.0194,574.2613 285,614 C274.6052,636.924 257.2237,657.1152 238.398,673.9723 " fill="none" id="java.lang.Thread&lt;-de.re.eeip.discoverdevices.DiscoverDevices.ListenerThread" style="stroke: #A80036; stroke-width: 1.0;"/><polygon fill="none" points="292.9265,487.9492,296.6052,467.0814,306.7428,485.6887,292.9265,487.9492" style="stroke: #A80036; stroke-width: 1.0;"/><!--MD5=[188dfacc77eca251486441ef44311b10]
reverse link de.re.eeip.discoverdevices.DiscoverDevices to de.re.eeip.discoverdevices.DiscoverDevices.ListenerThread--><path d="M147.5805,629.4822 C148.2155,643.9979 148.8941,659.5072 149.5241,673.9071 " fill="none" id="de.re.eeip.discoverdevices.DiscoverDevices&lt;-de.re.eeip.discoverdevices.DiscoverDevices.ListenerThread" style="stroke: #A80036; stroke-width: 1.0;"/><ellipse cx="147.2625" cy="622.2131" fill="#FFFFFF" rx="8" ry="8" style="stroke: #A80036; stroke-width: 1.0;"/><line style="stroke: #A80036; stroke-width: 1.0;" x1="147.6122" x2="146.9128" y1="630.2054" y2="614.2207"/><line style="stroke: #A80036; stroke-width: 1.0;" x1="139.2702" x2="155.2549" y1="622.5628" y2="621.8633"/><text fill="#888888" font-family="sans-serif" font-size="10" lengthAdjust="spacingAndGlyphs" textLength="182" x="119" y="822.668">UMLDoclet 2.0.9, PlantUML 1.2020.08</text><!--MD5=[009bd472f64b33301b0d8dc00d4af6e3]
@startuml
    namespace de.re.eeip.discoverdevices {

        class DiscoverDevices [[DiscoverDevices.html]] {
            -returnValue: List<CipIdentityItem>
            +ListIdentity(): List<CipIdentityItem>
            +getDeviceIdentity(String): CipIdentityItem
        }

        class de.re.eeip.discoverdevices.DiscoverDevices.ListenerThread [[DiscoverDevices.ListenerThread.html]] {
            ~buf: byte[]
            ~socket: DatagramSocket
            -outputPort: int
            +ListenerThread(int)
            +run(): void
        }

        java.lang.Thread <|- - DiscoverDevices
        java.lang.Thread <|- - de.re.eeip.discoverdevices.DiscoverDevices.ListenerThread
        DiscoverDevices +- - de.re.eeip.discoverdevices.DiscoverDevices.ListenerThread
    }

    namespace java.lang {
        class Thread {
            -name: String
            -priority: int
            -daemon: boolean
            -interrupted: boolean
            -stillborn: boolean
            -eetop: long
            -target: Runnable
            -group: ThreadGroup
            -contextClassLoader: ClassLoader
            -inheritedAccessControlContext: AccessControlContext
            {static} -threadInitNumber: int
            ~threadLocals: ThreadLocalMap
            ~inheritableThreadLocals: ThreadLocalMap
            -stackSize: long
            -tid: long
            {static} -threadSeqNumber: long
            -threadStatus: int
            ~parkBlocker: Object
            -blocker: Interruptible
            -blockerLock: Object
            {static} +MIN_PRIORITY: int
            {static} +NORM_PRIORITY: int
            {static} +MAX_PRIORITY: int
            {static} -EMPTY_STACK_TRACE: StackTraceElement[]
            -uncaughtExceptionHandler: UncaughtExceptionHandler
            {static} -defaultUncaughtExceptionHandler: UncaughtExceptionHandler
            ~threadLocalRandomSeed: long
            ~threadLocalRandomProbe: int
            ~threadLocalRandomSecondarySeed: int
        }
    }

    center footer UMLDoclet 2.0.9, PlantUML 1.2020.08
@enduml

PlantUML version 1.2020.08(Sun Apr 26 16:08:22 CEST 2020)
(APACHE source distribution)
Java Runtime: OpenJDK Runtime Environment
JVM: OpenJDK 64-Bit Server VM
Java Version: 14.0.2+12-46
Operating System: Mac OS X
Default Encoding: UTF-8
Language: fr
Country: FR
--></g></svg>