<?xml version="1.0" encoding="UTF-8" standalone="no"?><svg xmlns="http://www.w3.org/2000/svg" xmlns:xlink="http://www.w3.org/1999/xlink" contentScriptType="application/ecmascript" contentStyleType="text/css" height="211px" preserveAspectRatio="none" style="width:194px;height:211px;" version="1.1" viewBox="0 0 194 211" width="194px" zoomAndPan="magnify"><defs><filter height="300%" id="f1255wo9xr8ees" width="300%" x="-1" y="-1"><feGaussianBlur result="blurOut" stdDeviation="2.0"/><feColorMatrix in="blurOut" result="blurOut2" type="matrix" values="0 0 0 0 0 0 0 0 0 0 0 0 0 0 0 0 0 0 .4 0"/><feOffset dx="4.0" dy="4.0" in="blurOut2" result="blurOut3"/><feBlend in="SourceGraphic" in2="blurOut3" mode="normal"/></filter></defs><g><!--MD5=[1f54f7971e12577a4f53a5af43e84179]
class de.re.eeip.cip.exception.CIPException--><a href="CIPException.html" target="_top" title="CIPException.html" xlink:actuate="onRequest" xlink:href="CIPException.html" xlink:show="new" xlink:title="CIPException.html" xlink:type="simple"><rect fill="#FEFECE" filter="url(#f1255wo9xr8ees)" height="72.1758" id="de.re.eeip.cip.exception.CIPException" style="stroke: #A80036; stroke-width: 1.5;" width="149" x="10.5" y="106"/><ellipse cx="25.5" cy="125.1328" fill="#ADD1B2" rx="11" ry="11" style="stroke: #A80036; stroke-width: 1.0;"/><path d="M27.9731,131.2759 Q27.3921,131.5747 26.7529,131.7241 Q26.1138,131.8735 25.4082,131.8735 Q22.9014,131.8735 21.5815,130.2217 Q20.2617,128.5698 20.2617,125.4487 Q20.2617,122.3193 21.5815,120.6675 Q22.9014,119.0156 25.4082,119.0156 Q26.1138,119.0156 26.7612,119.165 Q27.4087,119.3145 27.9731,119.6133 L27.9731,122.3359 Q27.3423,121.7549 26.7488,121.4851 Q26.1553,121.2153 25.5244,121.2153 Q24.1797,121.2153 23.4949,122.282 Q22.8101,123.3486 22.8101,125.4487 Q22.8101,127.5405 23.4949,128.6072 Q24.1797,129.6738 25.5244,129.6738 Q26.1553,129.6738 26.7488,129.4041 Q27.3423,129.1343 27.9731,128.5532 Z "/><text fill="#000000" font-family="sans-serif" font-size="14" lengthAdjust="spacingAndGlyphs" textLength="90" x="53" y="124.5352">CIPException</text><text fill="#000000" font-family="sans-serif" font-size="10" lengthAdjust="spacingAndGlyphs" textLength="117" x="39.5" y="137.1563">de.re.eeip.cip.exception</text><line style="stroke: #A80036; stroke-width: 1.5;" x1="11.5" x2="158.5" y1="144.2656" y2="144.2656"/><ellipse cx="21.5" cy="155.2656" fill="#84BE84" rx="3" ry="3" style="stroke: #038048; stroke-width: 1.0;"/><text fill="#000000" font-family="sans-serif" font-size="11" lengthAdjust="spacingAndGlyphs" textLength="78" x="30.5" y="158.9004">CIPException()</text><ellipse cx="21.5" cy="168.2207" fill="#84BE84" rx="3" ry="3" style="stroke: #038048; stroke-width: 1.0;"/><text fill="#000000" font-family="sans-serif" font-size="11" lengthAdjust="spacingAndGlyphs" textLength="110" x="30.5" y="171.8555">CIPException(String)</text></a><!--MD5=[46c05dfe24a0851e179497c4631d3ff2]
class java.lang.Exception--><rect fill="#FEFECE" filter="url(#f1255wo9xr8ees)" height="38.2656" id="java.lang.Exception" style="stroke: #A80036; stroke-width: 1.5;" width="100" x="35" y="8"/><ellipse cx="50" cy="27.1328" fill="#ADD1B2" rx="11" ry="11" style="stroke: #A80036; stroke-width: 1.0;"/><path d="M52.4731,33.2759 Q51.8921,33.5747 51.2529,33.7241 Q50.6138,33.8735 49.9082,33.8735 Q47.4014,33.8735 46.0815,32.2217 Q44.7617,30.5698 44.7617,27.4487 Q44.7617,24.3193 46.0815,22.6675 Q47.4014,21.0156 49.9082,21.0156 Q50.6138,21.0156 51.2612,21.165 Q51.9087,21.3145 52.4731,21.6133 L52.4731,24.3359 Q51.8423,23.7549 51.2488,23.4851 Q50.6553,23.2153 50.0244,23.2153 Q48.6797,23.2153 47.9949,24.282 Q47.3101,25.3486 47.3101,27.4487 Q47.3101,29.5405 47.9949,30.6072 Q48.6797,31.6738 50.0244,31.6738 Q50.6553,31.6738 51.2488,31.4041 Q51.8423,31.1343 52.4731,30.5532 Z "/><text fill="#000000" font-family="sans-serif" font-size="14" lengthAdjust="spacingAndGlyphs" textLength="68" x="64" y="26.5352">Exception</text><text fill="#000000" font-family="sans-serif" font-size="10" lengthAdjust="spacingAndGlyphs" textLength="44" x="76" y="39.1563">java.lang</text><!--MD5=[2722ac1acc125d1b45c6ab3c52fbf026]
reverse link java.lang.Exception to de.re.eeip.cip.exception.CIPException--><path d="M85,66.5888 C85,79.3573 85,93.4348 85,105.935 " fill="none" id="java.lang.Exception&lt;-de.re.eeip.cip.exception.CIPException" style="stroke: #A80036; stroke-width: 1.0;"/><polygon fill="none" points="78.0001,66.2484,85,46.2484,92.0001,66.2484,78.0001,66.2484" style="stroke: #A80036; stroke-width: 1.0;"/><text fill="#888888" font-family="sans-serif" font-size="10" lengthAdjust="spacingAndGlyphs" textLength="182" x="0" y="197.668">UMLDoclet 2.0.9, PlantUML 1.2020.08</text><!--MD5=[5f289aeaff26f832e6ea76b9c446afae]
@startuml
    set namespaceSeparator none
    hide empty fields
    hide empty methods

    class "<size:14>CIPException\n<size:10>de.re.eeip.cip.exception" as de.re.eeip.cip.exception.CIPException [[CIPException.html]] {
        +CIPException()
        +CIPException(String)
    }

    class "<size:14>Exception\n<size:10>java.lang" as java.lang.Exception

    java.lang.Exception <|- - de.re.eeip.cip.exception.CIPException

    center footer UMLDoclet 2.0.9, PlantUML 1.2020.08
@enduml

PlantUML version 1.2020.08(Sun Apr 26 16:08:22 CEST 2020)
(APACHE source distribution)
Java Runtime: OpenJDK Runtime Environment
JVM: OpenJDK 64-Bit Server VM
Java Version: 14.0.2+12-46
Operating System: Mac OS X
Default Encoding: UTF-8
Language: fr
Country: FR
--></g></svg>