<?xml version="1.0" encoding="UTF-8" standalone="no"?><svg xmlns="http://www.w3.org/2000/svg" xmlns:xlink="http://www.w3.org/1999/xlink" contentScriptType="application/ecmascript" contentStyleType="text/css" height="287px" preserveAspectRatio="none" style="width:218px;height:287px;" version="1.1" viewBox="0 0 218 287" width="218px" zoomAndPan="magnify"><defs><filter height="300%" id="f1gppypf1kvkf6" width="300%" x="-1" y="-1"><feGaussianBlur result="blurOut" stdDeviation="2.0"/><feColorMatrix in="blurOut" result="blurOut2" type="matrix" values="0 0 0 0 0 0 0 0 0 0 0 0 0 0 0 0 0 0 .4 0"/><feOffset dx="4.0" dy="4.0" in="blurOut2" result="blurOut3"/><feBlend in="SourceGraphic" in2="blurOut3" mode="normal"/></filter></defs><g><!--MD5=[4db5e8baa6ff45d7931046266415e35d]
cluster de.re.eeip.cip.exception--><polygon fill="#FFFFFF" filter="url(#f1gppypf1kvkf6)" points="17,137,186,137,193,159.4883,196,159.4883,196,246,17,246,17,137" style="stroke: #000000; stroke-width: 1.5;"/><line style="stroke: #000000; stroke-width: 1.5;" x1="17" x2="193" y1="159.4883" y2="159.4883"/><text fill="#000000" font-family="sans-serif" font-size="14" font-weight="bold" lengthAdjust="spacingAndGlyphs" textLength="163" x="21" y="152.5352">de.re.eeip.cip.exception</text><!--MD5=[aa8f7b917213fcc1c2766e2d59b49067]
cluster java.lang--><polygon fill="#FFFFFF" filter="url(#f1gppypf1kvkf6)" points="14,16,83,16,90,38.4883,176,38.4883,176,112,14,112,14,16" style="stroke: #000000; stroke-width: 1.5;"/><line style="stroke: #000000; stroke-width: 1.5;" x1="14" x2="90" y1="38.4883" y2="38.4883"/><text fill="#000000" font-family="sans-serif" font-size="14" font-weight="bold" lengthAdjust="spacingAndGlyphs" textLength="63" x="18" y="31.5352">java.lang</text><!--MD5=[1f54f7971e12577a4f53a5af43e84179]
class de.re.eeip.cip.exception.CIPException--><a href="CIPException.html" target="_top" title="CIPException.html" xlink:actuate="onRequest" xlink:href="CIPException.html" xlink:show="new" xlink:title="CIPException.html" xlink:type="simple"><rect fill="#FEFECE" filter="url(#f1gppypf1kvkf6)" height="73.9102" id="de.re.eeip.cip.exception.CIPException" style="stroke: #A80036; stroke-width: 1.5;" width="136" x="27" y="164"/><ellipse cx="55.5" cy="180" fill="#ADD1B2" rx="11" ry="11" style="stroke: #A80036; stroke-width: 1.0;"/><path d="M57.9731,186.1431 Q57.3921,186.4419 56.7529,186.5913 Q56.1138,186.7407 55.4082,186.7407 Q52.9014,186.7407 51.5815,185.0889 Q50.2617,183.437 50.2617,180.3159 Q50.2617,177.1865 51.5815,175.5347 Q52.9014,173.8828 55.4082,173.8828 Q56.1138,173.8828 56.7612,174.0322 Q57.4087,174.1816 57.9731,174.4805 L57.9731,177.2031 Q57.3423,176.6221 56.7488,176.3523 Q56.1553,176.0825 55.5244,176.0825 Q54.1797,176.0825 53.4949,177.1492 Q52.8101,178.2158 52.8101,180.3159 Q52.8101,182.4077 53.4949,183.4744 Q54.1797,184.541 55.5244,184.541 Q56.1553,184.541 56.7488,184.2712 Q57.3423,184.0015 57.9731,183.4204 Z "/><text fill="#000000" font-family="sans-serif" font-size="12" lengthAdjust="spacingAndGlyphs" textLength="74" x="72.5" y="184.5352">CIPException</text><line style="stroke: #A80036; stroke-width: 1.5;" x1="28" x2="162" y1="196" y2="196"/><line style="stroke: #A80036; stroke-width: 1.5;" x1="28" x2="162" y1="204" y2="204"/><ellipse cx="38" cy="215" fill="#84BE84" rx="3" ry="3" style="stroke: #038048; stroke-width: 1.0;"/><text fill="#000000" font-family="sans-serif" font-size="11" lengthAdjust="spacingAndGlyphs" textLength="78" x="47" y="218.6348">CIPException()</text><ellipse cx="38" cy="227.9551" fill="#84BE84" rx="3" ry="3" style="stroke: #038048; stroke-width: 1.0;"/><text fill="#000000" font-family="sans-serif" font-size="11" lengthAdjust="spacingAndGlyphs" textLength="110" x="47" y="231.5898">CIPException(String)</text></a><!--MD5=[46c05dfe24a0851e179497c4631d3ff2]
class java.lang.Exception--><rect fill="#FEFECE" filter="url(#f1gppypf1kvkf6)" height="60.9551" id="java.lang.Exception" style="stroke: #A80036; stroke-width: 1.5;" width="145" x="22.5" y="43"/><ellipse cx="63.15" cy="59" fill="#ADD1B2" rx="11" ry="11" style="stroke: #A80036; stroke-width: 1.0;"/><path d="M65.6231,65.1431 Q65.0421,65.4419 64.4029,65.5913 Q63.7638,65.7407 63.0582,65.7407 Q60.5514,65.7407 59.2315,64.0889 Q57.9117,62.437 57.9117,59.3159 Q57.9117,56.1865 59.2315,54.5347 Q60.5514,52.8828 63.0582,52.8828 Q63.7638,52.8828 64.4112,53.0322 Q65.0587,53.1816 65.6231,53.4805 L65.6231,56.2031 Q64.9923,55.6221 64.3988,55.3523 Q63.8053,55.0825 63.1744,55.0825 Q61.8297,55.0825 61.1449,56.1492 Q60.4601,57.2158 60.4601,59.3159 Q60.4601,61.4077 61.1449,62.4744 Q61.8297,63.541 63.1744,63.541 Q63.8053,63.541 64.3988,63.2712 Q64.9923,63.0015 65.6231,62.4204 Z "/><text fill="#000000" font-family="sans-serif" font-size="12" lengthAdjust="spacingAndGlyphs" textLength="56" x="82.85" y="63.5352">Exception</text><line style="stroke: #A80036; stroke-width: 1.5;" x1="23.5" x2="166.5" y1="75" y2="75"/><polygon fill="none" points="33.5,82,29.5,88,37.5,88" style="stroke: #1963A0; stroke-width: 1.0;"/><text fill="#000000" font-family="sans-serif" font-size="11" lengthAdjust="spacingAndGlyphs" text-decoration="underline" textLength="119" x="42.5" y="89.6348">serialVersionUID: long</text><line style="stroke: #A80036; stroke-width: 1.5;" x1="23.5" x2="166.5" y1="95.9551" y2="95.9551"/><!--MD5=[2722ac1acc125d1b45c6ab3c52fbf026]
reverse link java.lang.Exception to de.re.eeip.cip.exception.CIPException--><path d="M95,124.4308 C95,137.6149 95,151.562 95,163.8888 " fill="none" id="java.lang.Exception&lt;-de.re.eeip.cip.exception.CIPException" style="stroke: #A80036; stroke-width: 1.0;"/><polygon fill="none" points="88.0001,124.0395,95,104.0394,102.0001,124.0394,88.0001,124.0395" style="stroke: #A80036; stroke-width: 1.0;"/><text fill="#888888" font-family="sans-serif" font-size="10" lengthAdjust="spacingAndGlyphs" textLength="182" x="20" y="273.668">UMLDoclet 2.0.9, PlantUML 1.2020.08</text><!--MD5=[440c897bf120b52e9a49fb33391bac46]
@startuml
    namespace de.re.eeip.cip.exception {

        class CIPException [[CIPException.html]] {
            +CIPException()
            +CIPException(String)
        }

        java.lang.Exception <|- - CIPException
    }

    namespace java.lang {
        class Exception {
            {static} ~serialVersionUID: long
        }
    }

    center footer UMLDoclet 2.0.9, PlantUML 1.2020.08
@enduml

PlantUML version 1.2020.08(Sun Apr 26 16:08:22 CEST 2020)
(APACHE source distribution)
Java Runtime: OpenJDK Runtime Environment
JVM: OpenJDK 64-Bit Server VM
Java Version: 14.0.2+12-46
Operating System: Mac OS X
Default Encoding: UTF-8
Language: fr
Country: FR
--></g></svg>