<?xml version="1.0" encoding="UTF-8" standalone="no"?><svg xmlns="http://www.w3.org/2000/svg" xmlns:xlink="http://www.w3.org/1999/xlink" contentScriptType="application/ecmascript" contentStyleType="text/css" height="555px" preserveAspectRatio="none" style="width:558px;height:555px;" version="1.1" viewBox="0 0 558 555" width="558px" zoomAndPan="magnify"><defs><filter height="300%" id="fp085r0c1xrl6" width="300%" x="-1" y="-1"><feGaussianBlur result="blurOut" stdDeviation="2.0"/><feColorMatrix in="blurOut" result="blurOut2" type="matrix" values="0 0 0 0 0 0 0 0 0 0 0 0 0 0 0 0 0 0 .4 0"/><feOffset dx="4.0" dy="4.0" in="blurOut2" result="blurOut3"/><feBlend in="SourceGraphic" in2="blurOut3" mode="normal"/></filter></defs><g><!--MD5=[2b9de67c4cc2693ee3a7bc443947731f]
cluster de.re.eeip.encapsulation--><polygon fill="#FFFFFF" filter="url(#fp085r0c1xrl6)" points="14,16,190,16,197,38.4883,536,38.4883,536,384,14,384,14,16" style="stroke: #000000; stroke-width: 1.5;"/><line style="stroke: #000000; stroke-width: 1.5;" x1="14" x2="197" y1="38.4883" y2="38.4883"/><text fill="#000000" font-family="sans-serif" font-size="14" font-weight="bold" lengthAdjust="spacingAndGlyphs" textLength="170" x="18" y="31.5352">de.re.eeip.encapsulation</text><!--MD5=[57793c0cc01645f5a98ea392eeaf3c14]
cluster de.re.eeip.encapsulation.datatypes--><polygon fill="#FFFFFF" filter="url(#fp085r0c1xrl6)" points="28,431,277,431,284,453.4883,460,453.4883,460,514,28,514,28,431" style="stroke: #000000; stroke-width: 1.5;"/><line style="stroke: #000000; stroke-width: 1.5;" x1="28" x2="284" y1="453.4883" y2="453.4883"/><text fill="#000000" font-family="sans-serif" font-size="14" font-weight="bold" lengthAdjust="spacingAndGlyphs" textLength="243" x="32" y="446.5352">de.re.eeip.encapsulation.datatypes</text><!--MD5=[1c5f628c972a03252d8de17300af57a2]
class de.re.eeip.encapsulation.Encapsulation--><a href="Encapsulation.html" target="_top" title="Encapsulation.html" xlink:actuate="onRequest" xlink:href="Encapsulation.html" xlink:show="new" xlink:title="Encapsulation.html" xlink:type="simple"><rect fill="#FEFECE" filter="url(#fp085r0c1xrl6)" height="125.7305" id="de.re.eeip.encapsulation.Encapsulation" style="stroke: #A80036; stroke-width: 1.5;" width="201" x="22.5" y="146.5"/><ellipse cx="79.25" cy="162.5" fill="#ADD1B2" rx="11" ry="11" style="stroke: #A80036; stroke-width: 1.0;"/><path d="M81.7231,168.6431 Q81.1421,168.9419 80.5029,169.0913 Q79.8638,169.2407 79.1582,169.2407 Q76.6514,169.2407 75.3315,167.5889 Q74.0117,165.937 74.0117,162.8159 Q74.0117,159.6865 75.3315,158.0347 Q76.6514,156.3828 79.1582,156.3828 Q79.8638,156.3828 80.5112,156.5322 Q81.1587,156.6816 81.7231,156.9805 L81.7231,159.7031 Q81.0923,159.1221 80.4988,158.8523 Q79.9053,158.5825 79.2744,158.5825 Q77.9297,158.5825 77.2449,159.6492 Q76.5601,160.7158 76.5601,162.8159 Q76.5601,164.9077 77.2449,165.9744 Q77.9297,167.041 79.2744,167.041 Q79.9053,167.041 80.4988,166.7712 Q81.0923,166.5015 81.7231,165.9204 Z "/><text fill="#000000" font-family="sans-serif" font-size="12" lengthAdjust="spacingAndGlyphs" textLength="79" x="99.75" y="167.0352">Encapsulation</text><line style="stroke: #A80036; stroke-width: 1.5;" x1="23.5" x2="222.5" y1="178.5" y2="178.5"/><ellipse cx="33.5" cy="189.5" fill="none" rx="3" ry="3" style="stroke: #038048; stroke-width: 1.0;"/><text fill="#000000" font-family="sans-serif" font-size="11" lengthAdjust="spacingAndGlyphs" textLength="57" x="42.5" y="193.1348">Length: int</text><ellipse cx="33.5" cy="202.4551" fill="none" rx="3" ry="3" style="stroke: #038048; stroke-width: 1.0;"/><text fill="#000000" font-family="sans-serif" font-size="11" lengthAdjust="spacingAndGlyphs" textLength="98" x="42.5" y="206.0898">SessionHandle: int</text><rect fill="none" height="6" style="stroke: #C82930; stroke-width: 1.0;" width="6" x="30.5" y="212.4102"/><text fill="#000000" font-family="sans-serif" font-size="11" lengthAdjust="spacingAndGlyphs" textLength="117" x="42.5" y="219.0449">senderContext: byte[]</text><rect fill="none" height="6" style="stroke: #C82930; stroke-width: 1.0;" width="6" x="30.5" y="225.3652"/><text fill="#000000" font-family="sans-serif" font-size="11" lengthAdjust="spacingAndGlyphs" textLength="61" x="42.5" y="232">options: int</text><ellipse cx="33.5" cy="241.3203" fill="none" rx="3" ry="3" style="stroke: #038048; stroke-width: 1.0;"/><text fill="#000000" font-family="sans-serif" font-size="11" lengthAdjust="spacingAndGlyphs" textLength="175" x="42.5" y="244.9551">CommandSpecificData: ArrayList</text><line style="stroke: #A80036; stroke-width: 1.5;" x1="23.5" x2="222.5" y1="251.2754" y2="251.2754"/><ellipse cx="33.5" cy="262.2754" fill="#84BE84" rx="3" ry="3" style="stroke: #038048; stroke-width: 1.0;"/><text fill="#000000" font-family="sans-serif" font-size="11" lengthAdjust="spacingAndGlyphs" textLength="84" x="42.5" y="265.9102">toBytes(): byte[]</text></a><!--MD5=[dbd26dce7bd7a29eb592d31ac56f0999]
class de.re.eeip.encapsulation.CipIdentityItem--><a href="CipIdentityItem.html" target="_top" title="CipIdentityItem.html" xlink:actuate="onRequest" xlink:href="CipIdentityItem.html" xlink:show="new" xlink:title="CipIdentityItem.html" xlink:type="simple"><rect fill="#FEFECE" filter="url(#fp085r0c1xrl6)" height="333.0117" id="de.re.eeip.encapsulation.CipIdentityItem" style="stroke: #A80036; stroke-width: 1.5;" width="269" x="258.5" y="43"/><ellipse cx="345.75" cy="59" fill="#ADD1B2" rx="11" ry="11" style="stroke: #A80036; stroke-width: 1.0;"/><path d="M348.2231,65.1431 Q347.6421,65.4419 347.0029,65.5913 Q346.3638,65.7407 345.6582,65.7407 Q343.1514,65.7407 341.8315,64.0889 Q340.5117,62.437 340.5117,59.3159 Q340.5117,56.1865 341.8315,54.5347 Q343.1514,52.8828 345.6582,52.8828 Q346.3638,52.8828 347.0112,53.0322 Q347.6587,53.1816 348.2231,53.4805 L348.2231,56.2031 Q347.5923,55.6221 346.9988,55.3523 Q346.4053,55.0825 345.7744,55.0825 Q344.4297,55.0825 343.7449,56.1492 Q343.0601,57.2158 343.0601,59.3159 Q343.0601,61.4077 343.7449,62.4744 Q344.4297,63.541 345.7744,63.541 Q346.4053,63.541 346.9988,63.2712 Q347.5923,63.0015 348.2231,62.4204 Z "/><text fill="#000000" font-family="sans-serif" font-size="12" lengthAdjust="spacingAndGlyphs" textLength="86" x="366.25" y="63.5352">CipIdentityItem</text><line style="stroke: #A80036; stroke-width: 1.5;" x1="259.5" x2="526.5" y1="75" y2="75"/><ellipse cx="269.5" cy="86" fill="none" rx="3" ry="3" style="stroke: #038048; stroke-width: 1.0;"/><text fill="#000000" font-family="sans-serif" font-size="11" lengthAdjust="spacingAndGlyphs" textLength="97" x="278.5" y="89.6348">ItemTypeCode: int</text><ellipse cx="269.5" cy="98.9551" fill="none" rx="3" ry="3" style="stroke: #038048; stroke-width: 1.0;"/><text fill="#000000" font-family="sans-serif" font-size="11" lengthAdjust="spacingAndGlyphs" textLength="80" x="278.5" y="102.5898">ItemLength: int</text><ellipse cx="269.5" cy="111.9102" fill="none" rx="3" ry="3" style="stroke: #038048; stroke-width: 1.0;"/><text fill="#000000" font-family="sans-serif" font-size="11" lengthAdjust="spacingAndGlyphs" textLength="181" x="278.5" y="115.5449">EncapsulationProtocolVersion: int</text><ellipse cx="269.5" cy="124.8652" fill="none" rx="3" ry="3" style="stroke: #038048; stroke-width: 1.0;"/><text fill="#000000" font-family="sans-serif" font-size="11" lengthAdjust="spacingAndGlyphs" textLength="77" x="278.5" y="128.5">VendorID1: int</text><ellipse cx="269.5" cy="137.8203" fill="none" rx="3" ry="3" style="stroke: #038048; stroke-width: 1.0;"/><text fill="#000000" font-family="sans-serif" font-size="11" lengthAdjust="spacingAndGlyphs" textLength="88" x="278.5" y="141.4551">DeviceType1: int</text><ellipse cx="269.5" cy="150.7754" fill="none" rx="3" ry="3" style="stroke: #038048; stroke-width: 1.0;"/><text fill="#000000" font-family="sans-serif" font-size="11" lengthAdjust="spacingAndGlyphs" textLength="97" x="278.5" y="154.4102">ProductCode1: int</text><ellipse cx="269.5" cy="163.7305" fill="none" rx="3" ry="3" style="stroke: #038048; stroke-width: 1.0;"/><text fill="#000000" font-family="sans-serif" font-size="11" lengthAdjust="spacingAndGlyphs" textLength="89" x="278.5" y="167.3652">Revision1: byte[]</text><ellipse cx="269.5" cy="176.6855" fill="none" rx="3" ry="3" style="stroke: #038048; stroke-width: 1.0;"/><text fill="#000000" font-family="sans-serif" font-size="11" lengthAdjust="spacingAndGlyphs" textLength="60" x="278.5" y="180.3203">Status1: int</text><ellipse cx="269.5" cy="189.6406" fill="none" rx="3" ry="3" style="stroke: #038048; stroke-width: 1.0;"/><text fill="#000000" font-family="sans-serif" font-size="11" lengthAdjust="spacingAndGlyphs" textLength="109" x="278.5" y="193.2754">SerialNumber1: long</text><ellipse cx="269.5" cy="202.5957" fill="none" rx="3" ry="3" style="stroke: #038048; stroke-width: 1.0;"/><text fill="#000000" font-family="sans-serif" font-size="11" lengthAdjust="spacingAndGlyphs" textLength="138" x="278.5" y="206.2305">ProductNameLength: byte</text><ellipse cx="269.5" cy="215.5508" fill="none" rx="3" ry="3" style="stroke: #038048; stroke-width: 1.0;"/><text fill="#000000" font-family="sans-serif" font-size="11" lengthAdjust="spacingAndGlyphs" textLength="117" x="278.5" y="219.1855">ProductName1: String</text><ellipse cx="269.5" cy="228.5059" fill="none" rx="3" ry="3" style="stroke: #038048; stroke-width: 1.0;"/><text fill="#000000" font-family="sans-serif" font-size="11" lengthAdjust="spacingAndGlyphs" textLength="62" x="278.5" y="232.1406">State1: byte</text><rect fill="none" height="6" style="stroke: #C82930; stroke-width: 1.0;" width="6" x="266.5" y="238.4609"/><text fill="#000000" font-family="sans-serif" font-size="11" lengthAdjust="spacingAndGlyphs" textLength="75" x="278.5" y="245.0957">sin_port: long</text><line style="stroke: #A80036; stroke-width: 1.5;" x1="259.5" x2="526.5" y1="251.416" y2="251.416"/><ellipse cx="269.5" cy="262.416" fill="#84BE84" rx="3" ry="3" style="stroke: #038048; stroke-width: 1.0;"/><text fill="#000000" font-family="sans-serif" font-size="11" lengthAdjust="spacingAndGlyphs" textLength="243" x="278.5" y="266.0508">getCIPIdentityItem(int, byte[]): CipIdentityItem</text><ellipse cx="269.5" cy="275.3711" fill="#84BE84" rx="3" ry="3" style="stroke: #038048; stroke-width: 1.0;"/><text fill="#000000" font-family="sans-serif" font-size="11" lengthAdjust="spacingAndGlyphs" text-decoration="underline" textLength="141" x="278.5" y="279.0059">getIPAddress(long): String</text><ellipse cx="269.5" cy="288.3262" fill="#84BE84" rx="3" ry="3" style="stroke: #038048; stroke-width: 1.0;"/><text fill="#000000" font-family="sans-serif" font-size="11" lengthAdjust="spacingAndGlyphs" textLength="116" x="278.5" y="291.9609">getIPAdresse(): String</text><ellipse cx="269.5" cy="301.2813" fill="#84BE84" rx="3" ry="3" style="stroke: #038048; stroke-width: 1.0;"/><text fill="#000000" font-family="sans-serif" font-size="11" lengthAdjust="spacingAndGlyphs" textLength="122" x="278.5" y="304.916">getItemTypeCode(): int</text><ellipse cx="269.5" cy="314.2363" fill="#84BE84" rx="3" ry="3" style="stroke: #038048; stroke-width: 1.0;"/><text fill="#000000" font-family="sans-serif" font-size="11" lengthAdjust="spacingAndGlyphs" textLength="102" x="278.5" y="317.8711">getVendorID1(): int</text><ellipse cx="269.5" cy="327.1914" fill="#84BE84" rx="3" ry="3" style="stroke: #038048; stroke-width: 1.0;"/><text fill="#000000" font-family="sans-serif" font-size="11" lengthAdjust="spacingAndGlyphs" textLength="122" x="278.5" y="330.8262">getProductCode1(): int</text><ellipse cx="269.5" cy="340.1465" fill="#84BE84" rx="3" ry="3" style="stroke: #038048; stroke-width: 1.0;"/><text fill="#000000" font-family="sans-serif" font-size="11" lengthAdjust="spacingAndGlyphs" textLength="134" x="278.5" y="343.7813">getSerialNumber1(): long</text><ellipse cx="269.5" cy="353.1016" fill="#84BE84" rx="3" ry="3" style="stroke: #038048; stroke-width: 1.0;"/><text fill="#000000" font-family="sans-serif" font-size="11" lengthAdjust="spacingAndGlyphs" textLength="142" x="278.5" y="356.7363">getProductName1(): String</text><ellipse cx="269.5" cy="366.0566" fill="#84BE84" rx="3" ry="3" style="stroke: #038048; stroke-width: 1.0;"/><text fill="#000000" font-family="sans-serif" font-size="11" lengthAdjust="spacingAndGlyphs" textLength="100" x="278.5" y="369.6914">getSin_port(): long</text></a><!--MD5=[b429a60e38b07056c7c510d250db21ae]
class de.re.eeip.encapsulation.datatypes.CommandsEnum--><rect fill="#FEFECE" filter="url(#fp085r0c1xrl6)" height="48" id="de.re.eeip.encapsulation.datatypes.CommandsEnum" style="stroke: #A80036; stroke-width: 1.5;" width="129" x="36.5" y="458"/><ellipse cx="51.5" cy="474" fill="#ADD1B2" rx="11" ry="11" style="stroke: #A80036; stroke-width: 1.0;"/><path d="M53.9731,480.1431 Q53.3921,480.4419 52.7529,480.5913 Q52.1138,480.7407 51.4082,480.7407 Q48.9014,480.7407 47.5815,479.0889 Q46.2617,477.437 46.2617,474.3159 Q46.2617,471.1865 47.5815,469.5347 Q48.9014,467.8828 51.4082,467.8828 Q52.1138,467.8828 52.7612,468.0322 Q53.4087,468.1816 53.9731,468.4805 L53.9731,471.2031 Q53.3423,470.6221 52.7488,470.3523 Q52.1553,470.0825 51.5244,470.0825 Q50.1797,470.0825 49.4949,471.1492 Q48.8101,472.2158 48.8101,474.3159 Q48.8101,476.4077 49.4949,477.4744 Q50.1797,478.541 51.5244,478.541 Q52.1553,478.541 52.7488,478.2712 Q53.3423,478.0015 53.9731,477.4204 Z "/><text fill="#000000" font-family="sans-serif" font-size="12" lengthAdjust="spacingAndGlyphs" textLength="97" x="65.5" y="478.5352">CommandsEnum</text><line style="stroke: #A80036; stroke-width: 1.5;" x1="37.5" x2="164.5" y1="490" y2="490"/><line style="stroke: #A80036; stroke-width: 1.5;" x1="37.5" x2="164.5" y1="498" y2="498"/><!--MD5=[817b17a8a2c4e16065af4a4869c42edc]
class de.re.eeip.encapsulation.datatypes.StatusEnum--><rect fill="#FEFECE" filter="url(#fp085r0c1xrl6)" height="48" id="de.re.eeip.encapsulation.datatypes.StatusEnum" style="stroke: #A80036; stroke-width: 1.5;" width="98" x="201" y="458"/><ellipse cx="216" cy="474" fill="#ADD1B2" rx="11" ry="11" style="stroke: #A80036; stroke-width: 1.0;"/><path d="M218.4731,480.1431 Q217.8921,480.4419 217.2529,480.5913 Q216.6138,480.7407 215.9082,480.7407 Q213.4014,480.7407 212.0815,479.0889 Q210.7617,477.437 210.7617,474.3159 Q210.7617,471.1865 212.0815,469.5347 Q213.4014,467.8828 215.9082,467.8828 Q216.6138,467.8828 217.2612,468.0322 Q217.9087,468.1816 218.4731,468.4805 L218.4731,471.2031 Q217.8423,470.6221 217.2488,470.3523 Q216.6553,470.0825 216.0244,470.0825 Q214.6797,470.0825 213.9949,471.1492 Q213.3101,472.2158 213.3101,474.3159 Q213.3101,476.4077 213.9949,477.4744 Q214.6797,478.541 216.0244,478.541 Q216.6553,478.541 217.2488,478.2712 Q217.8423,478.0015 218.4731,477.4204 Z "/><text fill="#000000" font-family="sans-serif" font-size="12" lengthAdjust="spacingAndGlyphs" textLength="66" x="230" y="478.5352">StatusEnum</text><line style="stroke: #A80036; stroke-width: 1.5;" x1="202" x2="298" y1="490" y2="490"/><line style="stroke: #A80036; stroke-width: 1.5;" x1="202" x2="298" y1="498" y2="498"/><!--MD5=[a223bbaa4f308f2475423e1b954d7dc8]
class de.re.eeip.encapsulation.datatypes.SocketAddress--><rect fill="#FEFECE" filter="url(#fp085r0c1xrl6)" height="48" id="de.re.eeip.encapsulation.datatypes.SocketAddress" style="stroke: #A80036; stroke-width: 1.5;" width="117" x="334.5" y="458"/><ellipse cx="349.5" cy="474" fill="#ADD1B2" rx="11" ry="11" style="stroke: #A80036; stroke-width: 1.0;"/><path d="M351.9731,480.1431 Q351.3921,480.4419 350.7529,480.5913 Q350.1138,480.7407 349.4082,480.7407 Q346.9014,480.7407 345.5815,479.0889 Q344.2617,477.437 344.2617,474.3159 Q344.2617,471.1865 345.5815,469.5347 Q346.9014,467.8828 349.4082,467.8828 Q350.1138,467.8828 350.7612,468.0322 Q351.4087,468.1816 351.9731,468.4805 L351.9731,471.2031 Q351.3423,470.6221 350.7488,470.3523 Q350.1553,470.0825 349.5244,470.0825 Q348.1797,470.0825 347.4949,471.1492 Q346.8101,472.2158 346.8101,474.3159 Q346.8101,476.4077 347.4949,477.4744 Q348.1797,478.541 349.5244,478.541 Q350.1553,478.541 350.7488,478.2712 Q351.3423,478.0015 351.9731,477.4204 Z "/><text fill="#000000" font-family="sans-serif" font-size="12" lengthAdjust="spacingAndGlyphs" textLength="85" x="363.5" y="478.5352">SocketAddress</text><line style="stroke: #A80036; stroke-width: 1.5;" x1="335.5" x2="450.5" y1="490" y2="490"/><line style="stroke: #A80036; stroke-width: 1.5;" x1="335.5" x2="450.5" y1="498" y2="498"/><!--MD5=[6e7745f07e9524fe6e6cd121c4f24586]
link de.re.eeip.encapsulation.Encapsulation to de.re.eeip.encapsulation.datatypes.CommandsEnum--><path d="M117.8975,272.7019 C113.3234,329.3582 106.8177,409.9398 103.3652,452.7041 " fill="none" id="de.re.eeip.encapsulation.Encapsulation-&gt;de.re.eeip.encapsulation.datatypes.CommandsEnum" style="stroke: #A80036; stroke-width: 1.0;"/><polygon fill="#A80036" points="102.9596,457.7276,107.671,449.0787,103.362,452.7438,99.6969,448.4349,102.9596,457.7276" style="stroke: #A80036; stroke-width: 1.0;"/><text fill="#000000" font-family="sans-serif" font-size="13" lengthAdjust="spacingAndGlyphs" textLength="64" x="108" y="419.5684">Command</text><!--MD5=[f0c61615db7472f907c6c5011b5d0ed5]
link de.re.eeip.encapsulation.Encapsulation to de.re.eeip.encapsulation.datatypes.StatusEnum--><path d="M152.4556,272.7019 C178.9142,329.4734 216.5687,410.2674 236.4678,452.9644 " fill="none" id="de.re.eeip.encapsulation.Encapsulation-&gt;de.re.eeip.encapsulation.datatypes.StatusEnum" style="stroke: #A80036; stroke-width: 1.0;"/><polygon fill="#A80036" points="238.6877,457.7276,238.5114,447.8803,236.5756,453.1956,231.2603,451.2597,238.6877,457.7276" style="stroke: #A80036; stroke-width: 1.0;"/><text fill="#000000" font-family="sans-serif" font-size="13" lengthAdjust="spacingAndGlyphs" textLength="39" x="221" y="419.5684">Status</text><!--MD5=[af48645df99435c336caaad6003c4532]
link de.re.eeip.encapsulation.CipIdentityItem to de.re.eeip.encapsulation.datatypes.SocketAddress--><path d="M393,376.2544 C393,405.5427 393,432.8487 393,452.3744 " fill="none" id="de.re.eeip.encapsulation.CipIdentityItem-&gt;de.re.eeip.encapsulation.datatypes.SocketAddress" style="stroke: #A80036; stroke-width: 1.0;"/><polygon fill="#A80036" points="393,457.6705,397,448.6705,393,452.6705,389,448.6705,393,457.6705" style="stroke: #A80036; stroke-width: 1.0;"/><text fill="#000000" font-family="sans-serif" font-size="13" lengthAdjust="spacingAndGlyphs" textLength="93" x="394" y="419.5684">SocketAddress</text><text fill="#888888" font-family="sans-serif" font-size="10" lengthAdjust="spacingAndGlyphs" textLength="182" x="190" y="541.668">UMLDoclet 2.0.9, PlantUML 1.2020.08</text><!--MD5=[2d004ef6c6bf0e7720db0998b25680e4]
@startuml
    namespace de.re.eeip.encapsulation {

        class Encapsulation [[Encapsulation.html]] {
            +Length: int
            +SessionHandle: int
            -senderContext: byte[]
            -options: int
            +CommandSpecificData: ArrayList
            +toBytes(): byte[]
        }

        class CipIdentityItem [[CipIdentityItem.html]] {
            +ItemTypeCode: int
            +ItemLength: int
            +EncapsulationProtocolVersion: int
            +VendorID1: int
            +DeviceType1: int
            +ProductCode1: int
            +Revision1: byte[]
            +Status1: int
            +SerialNumber1: long
            +ProductNameLength: byte
            +ProductName1: String
            +State1: byte
            -sin_port: long
            +getCIPIdentityItem(int, byte[]): CipIdentityItem
            {static} +getIPAddress(long): String
            +getIPAdresse(): String
            +getItemTypeCode(): int
            +getVendorID1(): int
            +getProductCode1(): int
            +getSerialNumber1(): long
            +getProductName1(): String
            +getSin_port(): long
        }

        Encapsulation - -> de.re.eeip.encapsulation.datatypes.CommandsEnum: Command
        Encapsulation - -> de.re.eeip.encapsulation.datatypes.StatusEnum: Status
        CipIdentityItem - -> de.re.eeip.encapsulation.datatypes.SocketAddress: SocketAddress
    }

    center footer UMLDoclet 2.0.9, PlantUML 1.2020.08
@enduml

PlantUML version 1.2020.08(Sun Apr 26 16:08:22 CEST 2020)
(APACHE source distribution)
Java Runtime: OpenJDK Runtime Environment
JVM: OpenJDK 64-Bit Server VM
Java Version: 14.0.2+12-46
Operating System: Mac OS X
Default Encoding: UTF-8
Language: fr
Country: FR
--></g></svg>