<?xml version="1.0" encoding="UTF-8" standalone="no"?><svg xmlns="http://www.w3.org/2000/svg" xmlns:xlink="http://www.w3.org/1999/xlink" contentScriptType="application/ecmascript" contentStyleType="text/css" height="245px" preserveAspectRatio="none" style="width:237px;height:245px;" version="1.1" viewBox="0 0 237 245" width="237px" zoomAndPan="magnify"><defs><filter height="300%" id="fr1pntg1v8oq7" width="300%" x="-1" y="-1"><feGaussianBlur result="blurOut" stdDeviation="2.0"/><feColorMatrix in="blurOut" result="blurOut2" type="matrix" values="0 0 0 0 0 0 0 0 0 0 0 0 0 0 0 0 0 0 .4 0"/><feOffset dx="4.0" dy="4.0" in="blurOut2" result="blurOut3"/><feBlend in="SourceGraphic" in2="blurOut3" mode="normal"/></filter></defs><g><!--MD5=[9ab41c886fa51af542a1a1e9e7901967]
class de.re.eeip.EEIPClient.UdpSendThread--><a href="EEIPClient.UdpSendThread.html" target="_top" title="EEIPClient.UdpSendThread.html" xlink:actuate="onRequest" xlink:href="EEIPClient.UdpSendThread.html" xlink:show="new" xlink:title="EEIPClient.UdpSendThread.html" xlink:type="simple"><rect fill="#FEFECE" filter="url(#fr1pntg1v8oq7)" height="106.0859" id="de.re.eeip.EEIPClient.UdpSendThread" style="stroke: #A80036; stroke-width: 1.5;" width="215" x="6" y="106"/><ellipse cx="21" cy="125.1328" fill="#ADD1B2" rx="11" ry="11" style="stroke: #A80036; stroke-width: 1.0;"/><path d="M23.4731,131.2759 Q22.8921,131.5747 22.2529,131.7241 Q21.6138,131.8735 20.9082,131.8735 Q18.4014,131.8735 17.0815,130.2217 Q15.7617,128.5698 15.7617,125.4487 Q15.7617,122.3193 17.0815,120.6675 Q18.4014,119.0156 20.9082,119.0156 Q21.6138,119.0156 22.2612,119.165 Q22.9087,119.3145 23.4731,119.6133 L23.4731,122.3359 Q22.8423,121.7549 22.2488,121.4851 Q21.6553,121.2153 21.0244,121.2153 Q19.6797,121.2153 18.9949,122.282 Q18.3101,123.3486 18.3101,125.4487 Q18.3101,127.5405 18.9949,128.6072 Q19.6797,129.6738 21.0244,129.6738 Q21.6553,129.6738 22.2488,129.4041 Q22.8423,129.1343 23.4731,128.5532 Z "/><text fill="#000000" font-family="sans-serif" font-size="14" lengthAdjust="spacingAndGlyphs" textLength="183" x="35" y="124.5352">EEIPClient.UdpSendThread</text><text fill="#000000" font-family="sans-serif" font-size="10" lengthAdjust="spacingAndGlyphs" textLength="49" x="102" y="137.1563">de.re.eeip</text><line style="stroke: #A80036; stroke-width: 1.5;" x1="7" x2="220" y1="144.2656" y2="144.2656"/><polygon fill="none" points="17,151.2656,13,157.2656,21,157.2656" style="stroke: #1963A0; stroke-width: 1.0;"/><text fill="#000000" font-family="sans-serif" font-size="11" lengthAdjust="spacingAndGlyphs" textLength="128" x="26" y="158.9004">socket: DatagramSocket</text><polygon fill="none" points="17,164.2207,13,170.2207,21,170.2207" style="stroke: #1963A0; stroke-width: 1.0;"/><text fill="#000000" font-family="sans-serif" font-size="11" lengthAdjust="spacingAndGlyphs" textLength="104" x="26" y="171.8555">sequenceCount: int</text><polygon fill="none" points="17,177.1758,13,183.1758,21,183.1758" style="stroke: #1963A0; stroke-width: 1.0;"/><text fill="#000000" font-family="sans-serif" font-size="11" lengthAdjust="spacingAndGlyphs" textLength="71" x="26" y="184.8105">sequence: int</text><line style="stroke: #A80036; stroke-width: 1.5;" x1="7" x2="220" y1="191.1309" y2="191.1309"/><ellipse cx="17" cy="202.1309" fill="#84BE84" rx="3" ry="3" style="stroke: #038048; stroke-width: 1.0;"/><text fill="#000000" font-family="sans-serif" font-size="11" lengthAdjust="spacingAndGlyphs" textLength="56" x="26" y="205.7656">run(): void</text></a><!--MD5=[0d73d898558f5941c48aa254e51fef11]
class java.lang.Thread--><rect fill="#FEFECE" filter="url(#fr1pntg1v8oq7)" height="38.2656" id="java.lang.Thread" style="stroke: #A80036; stroke-width: 1.5;" width="81" x="10" y="8"/><ellipse cx="25" cy="27.1328" fill="#ADD1B2" rx="11" ry="11" style="stroke: #A80036; stroke-width: 1.0;"/><path d="M27.4731,33.2759 Q26.8921,33.5747 26.2529,33.7241 Q25.6138,33.8735 24.9082,33.8735 Q22.4014,33.8735 21.0815,32.2217 Q19.7617,30.5698 19.7617,27.4487 Q19.7617,24.3193 21.0815,22.6675 Q22.4014,21.0156 24.9082,21.0156 Q25.6138,21.0156 26.2612,21.165 Q26.9087,21.3145 27.4731,21.6133 L27.4731,24.3359 Q26.8423,23.7549 26.2488,23.4851 Q25.6553,23.2153 25.0244,23.2153 Q23.6797,23.2153 22.9949,24.282 Q22.3101,25.3486 22.3101,27.4487 Q22.3101,29.5405 22.9949,30.6072 Q23.6797,31.6738 25.0244,31.6738 Q25.6553,31.6738 26.2488,31.4041 Q26.8423,31.1343 27.4731,30.5532 Z "/><text fill="#000000" font-family="sans-serif" font-size="14" lengthAdjust="spacingAndGlyphs" textLength="49" x="39" y="26.5352">Thread</text><text fill="#000000" font-family="sans-serif" font-size="10" lengthAdjust="spacingAndGlyphs" textLength="44" x="41.5" y="39.1563">java.lang</text><!--MD5=[9b64de6e11153cc038a271baedef777e]
class de.re.eeip.EEIPClient--><a href="EEIPClient.html" target="_top" title="EEIPClient.html" xlink:actuate="onRequest" xlink:href="EEIPClient.html" xlink:show="new" xlink:title="EEIPClient.html" xlink:type="simple"><rect fill="#FEFECE" filter="url(#fr1pntg1v8oq7)" height="38.2656" id="de.re.eeip.EEIPClient" style="stroke: #A80036; stroke-width: 1.5;" width="100" x="126.5" y="8"/><ellipse cx="141.5" cy="27.1328" fill="#ADD1B2" rx="11" ry="11" style="stroke: #A80036; stroke-width: 1.0;"/><path d="M143.9731,33.2759 Q143.3921,33.5747 142.7529,33.7241 Q142.1138,33.8735 141.4082,33.8735 Q138.9014,33.8735 137.5815,32.2217 Q136.2617,30.5698 136.2617,27.4487 Q136.2617,24.3193 137.5815,22.6675 Q138.9014,21.0156 141.4082,21.0156 Q142.1138,21.0156 142.7612,21.165 Q143.4087,21.3145 143.9731,21.6133 L143.9731,24.3359 Q143.3423,23.7549 142.7488,23.4851 Q142.1553,23.2153 141.5244,23.2153 Q140.1797,23.2153 139.4949,24.282 Q138.8101,25.3486 138.8101,27.4487 Q138.8101,29.5405 139.4949,30.6072 Q140.1797,31.6738 141.5244,31.6738 Q142.1553,31.6738 142.7488,31.4041 Q143.3423,31.1343 143.9731,30.5532 Z "/><text fill="#000000" font-family="sans-serif" font-size="14" lengthAdjust="spacingAndGlyphs" textLength="68" x="155.5" y="26.5352">EEIPClient</text><text fill="#000000" font-family="sans-serif" font-size="10" lengthAdjust="spacingAndGlyphs" textLength="49" x="165" y="39.1563">de.re.eeip</text></a><!--MD5=[67f60f78c8e002d1b1d6da084a1f91d3]
reverse link java.lang.Thread to de.re.eeip.EEIPClient.UdpSendThread--><path d="M68.4178,64.542 C74.5466,77.3834 81.524,92.0026 88.1276,105.8388 " fill="none" id="java.lang.Thread&lt;-de.re.eeip.EEIPClient.UdpSendThread" style="stroke: #A80036; stroke-width: 1.0;"/><polygon fill="none" points="61.958,67.2587,59.6607,46.1939,74.5928,61.2284,61.958,67.2587" style="stroke: #A80036; stroke-width: 1.0;"/><!--MD5=[ecb1077238ca068e6d09a0973ec24ee9]
reverse link de.re.eeip.EEIPClient to de.re.eeip.EEIPClient.UdpSendThread--><path d="M160.733,60.0357 C154.1199,73.8916 146.2622,90.3555 138.8724,105.8388 " fill="none" id="de.re.eeip.EEIPClient&lt;-de.re.eeip.EEIPClient.UdpSendThread" style="stroke: #A80036; stroke-width: 1.0;"/><ellipse cx="163.8935" cy="53.4137" fill="#FFFFFF" rx="8" ry="8" style="stroke: #A80036; stroke-width: 1.0;"/><line style="stroke: #A80036; stroke-width: 1.0;" x1="160.4476" x2="167.3393" y1="60.6336" y2="46.1939"/><line style="stroke: #A80036; stroke-width: 1.0;" x1="156.6736" x2="171.1133" y1="49.9679" y2="56.8596"/><text fill="#888888" font-family="sans-serif" font-size="10" lengthAdjust="spacingAndGlyphs" textLength="182" x="31.5" y="231.668">UMLDoclet 2.0.9, PlantUML 1.2020.08</text><!--MD5=[44085b3a6ba9e07e73c8e487df20ae36]
@startuml
    set namespaceSeparator none
    hide empty fields
    hide empty methods

    class "<size:14>EEIPClient.UdpSendThread\n<size:10>de.re.eeip" as de.re.eeip.EEIPClient.UdpSendThread [[EEIPClient.UdpSendThread.html]] {
        ~socket: DatagramSocket
        ~sequenceCount: int
        ~sequence: int
        +run(): void
    }

    class "<size:14>Thread\n<size:10>java.lang" as java.lang.Thread
    class "<size:14>EEIPClient\n<size:10>de.re.eeip" as de.re.eeip.EEIPClient [[EEIPClient.html]]

    java.lang.Thread <|- - de.re.eeip.EEIPClient.UdpSendThread
    de.re.eeip.EEIPClient +- - de.re.eeip.EEIPClient.UdpSendThread

    center footer UMLDoclet 2.0.9, PlantUML 1.2020.08
@enduml

PlantUML version 1.2020.08(Sun Apr 26 16:08:22 CEST 2020)
(APACHE source distribution)
Java Runtime: OpenJDK Runtime Environment
JVM: OpenJDK 64-Bit Server VM
Java Version: 14.0.2+12-46
Operating System: Mac OS X
Default Encoding: UTF-8
Language: fr
Country: FR
--></g></svg>