<?xml version="1.0" encoding="UTF-8" standalone="no"?><svg xmlns="http://www.w3.org/2000/svg" xmlns:xlink="http://www.w3.org/1999/xlink" contentScriptType="application/ecmascript" contentStyleType="text/css" height="258px" preserveAspectRatio="none" style="width:252px;height:258px;" version="1.1" viewBox="0 0 252 258" width="252px" zoomAndPan="magnify"><defs><filter height="300%" id="fx7q9n6y65d1x" width="300%" x="-1" y="-1"><feGaussianBlur result="blurOut" stdDeviation="2.0"/><feColorMatrix in="blurOut" result="blurOut2" type="matrix" values="0 0 0 0 0 0 0 0 0 0 0 0 0 0 0 0 0 0 .4 0"/><feOffset dx="4.0" dy="4.0" in="blurOut2" result="blurOut3"/><feBlend in="SourceGraphic" in2="blurOut3" mode="normal"/></filter></defs><g><!--MD5=[2a8a4925dca4ee17d383f59c02552d69]
class de.re.eeip.EEIPClient.UdpListenerThread--><a href="EEIPClient.UdpListenerThread.html" target="_top" title="EEIPClient.UdpListenerThread.html" xlink:actuate="onRequest" xlink:href="EEIPClient.UdpListenerThread.html" xlink:show="new" xlink:title="EEIPClient.UdpListenerThread.html" xlink:type="simple"><rect fill="#FEFECE" filter="url(#fx7q9n6y65d1x)" height="119.041" id="de.re.eeip.EEIPClient.UdpListenerThread" style="stroke: #A80036; stroke-width: 1.5;" width="235" x="6" y="106"/><ellipse cx="21" cy="125.1328" fill="#ADD1B2" rx="11" ry="11" style="stroke: #A80036; stroke-width: 1.0;"/><path d="M23.4731,131.2759 Q22.8921,131.5747 22.2529,131.7241 Q21.6138,131.8735 20.9082,131.8735 Q18.4014,131.8735 17.0815,130.2217 Q15.7617,128.5698 15.7617,125.4487 Q15.7617,122.3193 17.0815,120.6675 Q18.4014,119.0156 20.9082,119.0156 Q21.6138,119.0156 22.2612,119.165 Q22.9087,119.3145 23.4731,119.6133 L23.4731,122.3359 Q22.8423,121.7549 22.2488,121.4851 Q21.6553,121.2153 21.0244,121.2153 Q19.6797,121.2153 18.9949,122.282 Q18.3101,123.3486 18.3101,125.4487 Q18.3101,127.5405 18.9949,128.6072 Q19.6797,129.6738 21.0244,129.6738 Q21.6553,129.6738 22.2488,129.4041 Q22.8423,129.1343 23.4731,128.5532 Z "/><text fill="#000000" font-family="sans-serif" font-size="14" lengthAdjust="spacingAndGlyphs" textLength="203" x="35" y="124.5352">EEIPClient.UdpListenerThread</text><text fill="#000000" font-family="sans-serif" font-size="10" lengthAdjust="spacingAndGlyphs" textLength="49" x="112" y="137.1563">de.re.eeip</text><line style="stroke: #A80036; stroke-width: 1.5;" x1="7" x2="240" y1="144.2656" y2="144.2656"/><polygon fill="none" points="17,151.2656,13,157.2656,21,157.2656" style="stroke: #1963A0; stroke-width: 1.0;"/><text fill="#000000" font-family="sans-serif" font-size="11" lengthAdjust="spacingAndGlyphs" textLength="132" x="26" y="158.9004">multicastAddress: String</text><polygon fill="none" points="17,164.2207,13,170.2207,21,170.2207" style="stroke: #1963A0; stroke-width: 1.0;"/><text fill="#000000" font-family="sans-serif" font-size="11" lengthAdjust="spacingAndGlyphs" textLength="55" x="26" y="171.8555">buf: byte[]</text><polygon fill="none" points="17,177.1758,13,183.1758,21,183.1758" style="stroke: #1963A0; stroke-width: 1.0;"/><text fill="#000000" font-family="sans-serif" font-size="11" lengthAdjust="spacingAndGlyphs" textLength="124" x="26" y="184.8105">socket: MulticastSocket</text><line style="stroke: #A80036; stroke-width: 1.5;" x1="7" x2="240" y1="191.1309" y2="191.1309"/><polygon fill="#4177AF" points="17,198.1309,13,204.1309,21,204.1309" style="stroke: #1963A0; stroke-width: 1.0;"/><text fill="#000000" font-family="sans-serif" font-size="11" lengthAdjust="spacingAndGlyphs" textLength="143" x="26" y="205.7656">UdpListenerThread(String)</text><ellipse cx="17" cy="215.0859" fill="#84BE84" rx="3" ry="3" style="stroke: #038048; stroke-width: 1.0;"/><text fill="#000000" font-family="sans-serif" font-size="11" lengthAdjust="spacingAndGlyphs" textLength="56" x="26" y="218.7207">run(): void</text></a><!--MD5=[0d73d898558f5941c48aa254e51fef11]
class java.lang.Thread--><rect fill="#FEFECE" filter="url(#fx7q9n6y65d1x)" height="38.2656" id="java.lang.Thread" style="stroke: #A80036; stroke-width: 1.5;" width="81" x="20" y="8"/><ellipse cx="35" cy="27.1328" fill="#ADD1B2" rx="11" ry="11" style="stroke: #A80036; stroke-width: 1.0;"/><path d="M37.4731,33.2759 Q36.8921,33.5747 36.2529,33.7241 Q35.6138,33.8735 34.9082,33.8735 Q32.4014,33.8735 31.0815,32.2217 Q29.7617,30.5698 29.7617,27.4487 Q29.7617,24.3193 31.0815,22.6675 Q32.4014,21.0156 34.9082,21.0156 Q35.6138,21.0156 36.2612,21.165 Q36.9087,21.3145 37.4731,21.6133 L37.4731,24.3359 Q36.8423,23.7549 36.2488,23.4851 Q35.6553,23.2153 35.0244,23.2153 Q33.6797,23.2153 32.9949,24.282 Q32.3101,25.3486 32.3101,27.4487 Q32.3101,29.5405 32.9949,30.6072 Q33.6797,31.6738 35.0244,31.6738 Q35.6553,31.6738 36.2488,31.4041 Q36.8423,31.1343 37.4731,30.5532 Z "/><text fill="#000000" font-family="sans-serif" font-size="14" lengthAdjust="spacingAndGlyphs" textLength="49" x="49" y="26.5352">Thread</text><text fill="#000000" font-family="sans-serif" font-size="10" lengthAdjust="spacingAndGlyphs" textLength="44" x="51.5" y="39.1563">java.lang</text><!--MD5=[9b64de6e11153cc038a271baedef777e]
class de.re.eeip.EEIPClient--><a href="EEIPClient.html" target="_top" title="EEIPClient.html" xlink:actuate="onRequest" xlink:href="EEIPClient.html" xlink:show="new" xlink:title="EEIPClient.html" xlink:type="simple"><rect fill="#FEFECE" filter="url(#fx7q9n6y65d1x)" height="38.2656" id="de.re.eeip.EEIPClient" style="stroke: #A80036; stroke-width: 1.5;" width="100" x="136.5" y="8"/><ellipse cx="151.5" cy="27.1328" fill="#ADD1B2" rx="11" ry="11" style="stroke: #A80036; stroke-width: 1.0;"/><path d="M153.9731,33.2759 Q153.3921,33.5747 152.7529,33.7241 Q152.1138,33.8735 151.4082,33.8735 Q148.9014,33.8735 147.5815,32.2217 Q146.2617,30.5698 146.2617,27.4487 Q146.2617,24.3193 147.5815,22.6675 Q148.9014,21.0156 151.4082,21.0156 Q152.1138,21.0156 152.7612,21.165 Q153.4087,21.3145 153.9731,21.6133 L153.9731,24.3359 Q153.3423,23.7549 152.7488,23.4851 Q152.1553,23.2153 151.5244,23.2153 Q150.1797,23.2153 149.4949,24.282 Q148.8101,25.3486 148.8101,27.4487 Q148.8101,29.5405 149.4949,30.6072 Q150.1797,31.6738 151.5244,31.6738 Q152.1553,31.6738 152.7488,31.4041 Q153.3423,31.1343 153.9731,30.5532 Z "/><text fill="#000000" font-family="sans-serif" font-size="14" lengthAdjust="spacingAndGlyphs" textLength="68" x="165.5" y="26.5352">EEIPClient</text><text fill="#000000" font-family="sans-serif" font-size="10" lengthAdjust="spacingAndGlyphs" textLength="49" x="175" y="39.1563">de.re.eeip</text></a><!--MD5=[0af213f9a429395c0c868daddbdf6453]
reverse link java.lang.Thread to de.re.eeip.EEIPClient.UdpListenerThread--><path d="M77.5496,64.4821 C83.3635,77.2634 90.0158,91.888 96.4196,105.966 " fill="none" id="java.lang.Thread&lt;-de.re.eeip.EEIPClient.UdpListenerThread" style="stroke: #A80036; stroke-width: 1.0;"/><polygon fill="none" points="71.1692,67.3613,69.2599,46.2578,83.9127,61.5645,71.1692,67.3613" style="stroke: #A80036; stroke-width: 1.0;"/><!--MD5=[54d1fdf404aada56866640652cd4a5a4]
reverse link de.re.eeip.EEIPClient to de.re.eeip.EEIPClient.UdpListenerThread--><path d="M171.4893,59.9997 C165.2239,73.7736 157.7465,90.212 150.5804,105.966 " fill="none" id="de.re.eeip.EEIPClient&lt;-de.re.eeip.EEIPClient.UdpListenerThread" style="stroke: #A80036; stroke-width: 1.0;"/><ellipse cx="174.4277" cy="53.5398" fill="#FFFFFF" rx="8" ry="8" style="stroke: #A80036; stroke-width: 1.0;"/><line style="stroke: #A80036; stroke-width: 1.0;" x1="171.1153" x2="177.7401" y1="60.8219" y2="46.2578"/><line style="stroke: #A80036; stroke-width: 1.0;" x1="167.1457" x2="181.7097" y1="50.2274" y2="56.8522"/><text fill="#888888" font-family="sans-serif" font-size="10" lengthAdjust="spacingAndGlyphs" textLength="182" x="38.5" y="244.668">UMLDoclet 2.0.9, PlantUML 1.2020.08</text><!--MD5=[caf2b85928e390490a7612945df22aa7]
@startuml
    set namespaceSeparator none
    hide empty fields
    hide empty methods

    class "<size:14>EEIPClient.UdpListenerThread\n<size:10>de.re.eeip" as de.re.eeip.EEIPClient.UdpListenerThread [[EEIPClient.UdpListenerThread.html]] {
        ~multicastAddress: String
        ~buf: byte[]
        ~socket: MulticastSocket
        ~UdpListenerThread(String)
        +run(): void
    }

    class "<size:14>Thread\n<size:10>java.lang" as java.lang.Thread
    class "<size:14>EEIPClient\n<size:10>de.re.eeip" as de.re.eeip.EEIPClient [[EEIPClient.html]]

    java.lang.Thread <|- - de.re.eeip.EEIPClient.UdpListenerThread
    de.re.eeip.EEIPClient +- - de.re.eeip.EEIPClient.UdpListenerThread

    center footer UMLDoclet 2.0.9, PlantUML 1.2020.08
@enduml

PlantUML version 1.2020.08(Sun Apr 26 16:08:22 CEST 2020)
(APACHE source distribution)
Java Runtime: OpenJDK Runtime Environment
JVM: OpenJDK 64-Bit Server VM
Java Version: 14.0.2+12-46
Operating System: Mac OS X
Default Encoding: UTF-8
Language: fr
Country: FR
--></g></svg>