<?xml version="1.0" encoding="UTF-8" standalone="no"?><svg xmlns="http://www.w3.org/2000/svg" xmlns:xlink="http://www.w3.org/1999/xlink" contentScriptType="application/ecmascript" contentStyleType="text/css" height="388px" preserveAspectRatio="none" style="width:239px;height:388px;" version="1.1" viewBox="0 0 239 388" width="239px" zoomAndPan="magnify"><defs><filter height="300%" id="f15kxd0qrxw9zj" width="300%" x="-1" y="-1"><feGaussianBlur result="blurOut" stdDeviation="2.0"/><feColorMatrix in="blurOut" result="blurOut2" type="matrix" values="0 0 0 0 0 0 0 0 0 0 0 0 0 0 0 0 0 0 .4 0"/><feOffset dx="4.0" dy="4.0" in="blurOut2" result="blurOut3"/><feBlend in="SourceGraphic" in2="blurOut3" mode="normal"/></filter></defs><g><!--MD5=[4c73c2243441d5b9ff1379b85bee5c21]
class com.cohorte.ethernetip.cipconnector.CIPConnectionImplicit--><a href="CIPConnectionImplicit.html" target="_top" title="CIPConnectionImplicit.html" xlink:actuate="onRequest" xlink:href="CIPConnectionImplicit.html" xlink:show="new" xlink:title="CIPConnectionImplicit.html" xlink:type="simple"><rect fill="#FEFECE" filter="url(#f15kxd0qrxw9zj)" height="248.5918" id="com.cohorte.ethernetip.cipconnector.CIPConnectionImplicit" style="stroke: #A80036; stroke-width: 1.5;" width="222" x="6" y="106"/><ellipse cx="25.95" cy="125.1328" fill="#ADD1B2" rx="11" ry="11" style="stroke: #A80036; stroke-width: 1.0;"/><path d="M28.4231,131.2759 Q27.8421,131.5747 27.2029,131.7241 Q26.5638,131.8735 25.8582,131.8735 Q23.3514,131.8735 22.0315,130.2217 Q20.7117,128.5698 20.7117,125.4487 Q20.7117,122.3193 22.0315,120.6675 Q23.3514,119.0156 25.8582,119.0156 Q26.5638,119.0156 27.2112,119.165 Q27.8587,119.3145 28.4231,119.6133 L28.4231,122.3359 Q27.7923,121.7549 27.1988,121.4851 Q26.6053,121.2153 25.9744,121.2153 Q24.6297,121.2153 23.9449,122.282 Q23.2601,123.3486 23.2601,125.4487 Q23.2601,127.5405 23.9449,128.6072 Q24.6297,129.6738 25.9744,129.6738 Q26.6053,129.6738 27.1988,129.4041 Q27.7923,129.1343 28.4231,128.5532 Z "/><text fill="#000000" font-family="sans-serif" font-size="14" lengthAdjust="spacingAndGlyphs" textLength="151" x="55.05" y="124.5352">CIPConnectionImplicit</text><text fill="#000000" font-family="sans-serif" font-size="10" lengthAdjust="spacingAndGlyphs" textLength="179" x="41.05" y="137.1563">com.cohorte.ethernetip.cipconnector</text><line style="stroke: #A80036; stroke-width: 1.5;" x1="7" x2="227" y1="144.2656" y2="144.2656"/><rect fill="none" height="6" style="stroke: #C82930; stroke-width: 1.0;" width="6" x="14" y="152.2656"/><text fill="#000000" font-family="sans-serif" font-size="11" lengthAdjust="spacingAndGlyphs" textLength="139" x="26" y="158.9004">O_T_Property: IOproperty</text><rect fill="none" height="6" style="stroke: #C82930; stroke-width: 1.0;" width="6" x="14" y="165.2207"/><text fill="#000000" font-family="sans-serif" font-size="11" lengthAdjust="spacingAndGlyphs" textLength="139" x="26" y="171.8555">T_O_Property: IOproperty</text><polygon fill="none" points="17,176.1758,21,180.1758,17,184.1758,13,180.1758" style="stroke: #B38D22; stroke-width: 1.0;"/><text fill="#000000" font-family="sans-serif" font-size="11" lengthAdjust="spacingAndGlyphs" textLength="102" x="26" y="184.8105">isForward: boolean</text><line style="stroke: #A80036; stroke-width: 1.5;" x1="7" x2="227" y1="191.1309" y2="191.1309"/><ellipse cx="17" cy="202.1309" fill="#84BE84" rx="3" ry="3" style="stroke: #038048; stroke-width: 1.0;"/><text fill="#000000" font-family="sans-serif" font-size="11" lengthAdjust="spacingAndGlyphs" textLength="158" x="26" y="205.7656">CIPConnectionImplicit(String)</text><ellipse cx="17" cy="215.0859" fill="#84BE84" rx="3" ry="3" style="stroke: #038048; stroke-width: 1.0;"/><text fill="#000000" font-family="sans-serif" font-size="11" lengthAdjust="spacingAndGlyphs" textLength="196" x="26" y="218.7207">CIPConnectionImplicit(String, String)</text><ellipse cx="17" cy="228.041" fill="#84BE84" rx="3" ry="3" style="stroke: #038048; stroke-width: 1.0;"/><text fill="#000000" font-family="sans-serif" font-size="11" lengthAdjust="spacingAndGlyphs" textLength="164" x="26" y="231.6758">getO_T_Property(): IOproperty</text><ellipse cx="17" cy="240.9961" fill="#84BE84" rx="3" ry="3" style="stroke: #038048; stroke-width: 1.0;"/><text fill="#000000" font-family="sans-serif" font-size="11" lengthAdjust="spacingAndGlyphs" textLength="186" x="26" y="244.6309">setO_T_Property(IOproperty): void</text><ellipse cx="17" cy="253.9512" fill="#84BE84" rx="3" ry="3" style="stroke: #038048; stroke-width: 1.0;"/><text fill="#000000" font-family="sans-serif" font-size="11" lengthAdjust="spacingAndGlyphs" textLength="164" x="26" y="257.5859">getT_O_Property(): IOproperty</text><ellipse cx="17" cy="266.9063" fill="#84BE84" rx="3" ry="3" style="stroke: #038048; stroke-width: 1.0;"/><text fill="#000000" font-family="sans-serif" font-size="11" lengthAdjust="spacingAndGlyphs" textLength="186" x="26" y="270.541">setT_O_Property(IOproperty): void</text><ellipse cx="17" cy="279.8613" fill="#84BE84" rx="3" ry="3" style="stroke: #038048; stroke-width: 1.0;"/><text fill="#000000" font-family="sans-serif" font-size="11" lengthAdjust="spacingAndGlyphs" textLength="126" x="26" y="283.4961">cipOpenForward(): void</text><ellipse cx="17" cy="292.8164" fill="#84BE84" rx="3" ry="3" style="stroke: #038048; stroke-width: 1.0;"/><text fill="#000000" font-family="sans-serif" font-size="11" lengthAdjust="spacingAndGlyphs" textLength="127" x="26" y="296.4512">cipCloseForward(): void</text><ellipse cx="17" cy="305.7715" fill="#84BE84" rx="3" ry="3" style="stroke: #038048; stroke-width: 1.0;"/><text fill="#000000" font-family="sans-serif" font-size="11" lengthAdjust="spacingAndGlyphs" textLength="110" x="26" y="309.4063">isForward(): boolean</text><ellipse cx="17" cy="318.7266" fill="#84BE84" rx="3" ry="3" style="stroke: #038048; stroke-width: 1.0;"/><text fill="#000000" font-family="sans-serif" font-size="11" lengthAdjust="spacingAndGlyphs" textLength="126" x="26" y="322.3613">getIOData(): List&lt;Byte&gt;</text><ellipse cx="17" cy="331.6816" fill="#84BE84" rx="3" ry="3" style="stroke: #038048; stroke-width: 1.0;"/><text fill="#000000" font-family="sans-serif" font-size="11" lengthAdjust="spacingAndGlyphs" textLength="148" x="26" y="335.3164">setIOData(List&lt;Byte&gt;): void</text><ellipse cx="17" cy="344.6367" fill="#84BE84" rx="3" ry="3" style="stroke: #038048; stroke-width: 1.0;"/><text fill="#000000" font-family="sans-serif" font-size="11" lengthAdjust="spacingAndGlyphs" textLength="138" x="26" y="348.2715">cipRegisterSession(): void</text></a><!--MD5=[6393a02b39d317be7f3a21cbc7cb8587]
class com.cohorte.ethernetip.cipconnector.CIPConnection--><a href="CIPConnection.html" target="_top" title="CIPConnection.html" xlink:actuate="onRequest" xlink:href="CIPConnection.html" xlink:show="new" xlink:title="CIPConnection.html" xlink:type="simple"><rect fill="#FEFECE" filter="url(#f15kxd0qrxw9zj)" height="38.2656" id="com.cohorte.ethernetip.cipconnector.CIPConnection" style="stroke: #A80036; stroke-width: 1.5;" width="211" x="11.5" y="8"/><ellipse cx="26.5" cy="27.1328" fill="#ADD1B2" rx="11" ry="11" style="stroke: #A80036; stroke-width: 1.0;"/><path d="M28.9731,33.2759 Q28.3921,33.5747 27.7529,33.7241 Q27.1138,33.8735 26.4082,33.8735 Q23.9014,33.8735 22.5815,32.2217 Q21.2617,30.5698 21.2617,27.4487 Q21.2617,24.3193 22.5815,22.6675 Q23.9014,21.0156 26.4082,21.0156 Q27.1138,21.0156 27.7612,21.165 Q28.4087,21.3145 28.9731,21.6133 L28.9731,24.3359 Q28.3423,23.7549 27.7488,23.4851 Q27.1553,23.2153 26.5244,23.2153 Q25.1797,23.2153 24.4949,24.282 Q23.8101,25.3486 23.8101,27.4487 Q23.8101,29.5405 24.4949,30.6072 Q25.1797,31.6738 26.5244,31.6738 Q27.1553,31.6738 27.7488,31.4041 Q28.3423,31.1343 28.9731,30.5532 Z "/><text fill="#000000" font-family="sans-serif" font-size="14" lengthAdjust="spacingAndGlyphs" textLength="101" x="79.5" y="26.5352">CIPConnection</text><text fill="#000000" font-family="sans-serif" font-size="10" lengthAdjust="spacingAndGlyphs" textLength="179" x="40.5" y="39.1563">com.cohorte.ethernetip.cipconnector</text></a><!--MD5=[747432a2f02c88268d0341d452e002bf]
reverse link com.cohorte.ethernetip.cipconnector.CIPConnection to com.cohorte.ethernetip.cipconnector.CIPConnectionImplicit--><path d="M117,66.1693 C117,77.9091 117,91.4661 117,105.6557 " fill="none" id="com.cohorte.ethernetip.cipconnector.CIPConnection&lt;-com.cohorte.ethernetip.cipconnector.CIPConnectionImplicit" style="stroke: #A80036; stroke-width: 1.0;"/><polygon fill="none" points="110.0001,66.1448,117,46.1448,124.0001,66.1448,110.0001,66.1448" style="stroke: #A80036; stroke-width: 1.0;"/><text fill="#888888" font-family="sans-serif" font-size="10" lengthAdjust="spacingAndGlyphs" textLength="182" x="32" y="374.668">UMLDoclet 2.0.9, PlantUML 1.2020.08</text><!--MD5=[daa905460c85026cd50c26360b17f147]
@startuml
    set namespaceSeparator none
    hide empty fields
    hide empty methods

    class "<size:14>CIPConnectionImplicit\n<size:10>com.cohorte.ethernetip.cipconnector" as com.cohorte.ethernetip.cipconnector.CIPConnectionImplicit [[CIPConnectionImplicit.html]] {
        -O_T_Property: IOproperty
        -T_O_Property: IOproperty
        #isForward: boolean
        +CIPConnectionImplicit(String)
        +CIPConnectionImplicit(String, String)
        +getO_T_Property(): IOproperty
        +setO_T_Property(IOproperty): void
        +getT_O_Property(): IOproperty
        +setT_O_Property(IOproperty): void
        +cipOpenForward(): void
        +cipCloseForward(): void
        +isForward(): boolean
        +getIOData(): List<Byte>
        +setIOData(List<Byte>): void
        +cipRegisterSession(): void
    }

    class "<size:14>CIPConnection\n<size:10>com.cohorte.ethernetip.cipconnector" as com.cohorte.ethernetip.cipconnector.CIPConnection [[CIPConnection.html]]

    com.cohorte.ethernetip.cipconnector.CIPConnection <|- - com.cohorte.ethernetip.cipconnector.CIPConnectionImplicit

    center footer UMLDoclet 2.0.9, PlantUML 1.2020.08
@enduml

PlantUML version 1.2020.08(Sun Apr 26 16:08:22 CEST 2020)
(APACHE source distribution)
Java Runtime: OpenJDK Runtime Environment
JVM: OpenJDK 64-Bit Server VM
Java Version: 14.0.2+12-46
Operating System: Mac OS X
Default Encoding: UTF-8
Language: fr
Country: FR
--></g></svg>