<?xml version="1.0" encoding="UTF-8" standalone="no"?><svg xmlns="http://www.w3.org/2000/svg" xmlns:xlink="http://www.w3.org/1999/xlink" contentScriptType="application/ecmascript" contentStyleType="text/css" height="156px" preserveAspectRatio="none" style="width:318px;height:156px;" version="1.1" viewBox="0 0 318 156" width="318px" zoomAndPan="magnify"><defs><filter height="300%" id="ftitm8q1mbotf" width="300%" x="-1" y="-1"><feGaussianBlur result="blurOut" stdDeviation="2.0"/><feColorMatrix in="blurOut" result="blurOut2" type="matrix" values="0 0 0 0 0 0 0 0 0 0 0 0 0 0 0 0 0 0 .4 0"/><feOffset dx="4.0" dy="4.0" in="blurOut2" result="blurOut3"/><feBlend in="SourceGraphic" in2="blurOut3" mode="normal"/></filter></defs><g><!--MD5=[dc5f9050b1bb5df4066d15a6829d31ad]
class com.cohorte.ethernetip.cipconnector.tools.CIPConnectionPathValidator--><a href="CIPConnectionPathValidator.html" target="_top" title="CIPConnectionPathValidator.html" xlink:actuate="onRequest" xlink:href="CIPConnectionPathValidator.html" xlink:show="new" xlink:title="CIPConnectionPathValidator.html" xlink:type="simple"><rect fill="#FEFECE" filter="url(#ftitm8q1mbotf)" height="119.041" id="com.cohorte.ethernetip.cipconnector.tools.CIPConnectionPathValidator" style="stroke: #A80036; stroke-width: 1.5;" width="300" x="7" y="7"/><ellipse cx="49.9" cy="26.1328" fill="#ADD1B2" rx="11" ry="11" style="stroke: #A80036; stroke-width: 1.0;"/><path d="M52.3731,32.2759 Q51.7921,32.5747 51.1529,32.7241 Q50.5138,32.8735 49.8082,32.8735 Q47.3014,32.8735 45.9815,31.2217 Q44.6617,29.5698 44.6617,26.4487 Q44.6617,23.3193 45.9815,21.6675 Q47.3014,20.0156 49.8082,20.0156 Q50.5138,20.0156 51.1612,20.165 Q51.8087,20.3145 52.3731,20.6133 L52.3731,23.3359 Q51.7423,22.7549 51.1488,22.4851 Q50.5553,22.2153 49.9244,22.2153 Q48.5797,22.2153 47.8949,23.282 Q47.2101,24.3486 47.2101,26.4487 Q47.2101,28.5405 47.8949,29.6072 Q48.5797,30.6738 49.9244,30.6738 Q50.5553,30.6738 51.1488,30.4041 Q51.7423,30.1343 52.3731,29.5532 Z "/><text fill="#000000" font-family="sans-serif" font-size="14" lengthAdjust="spacingAndGlyphs" textLength="193" x="76.6" y="25.5352">CIPConnectionPathValidator</text><text fill="#000000" font-family="sans-serif" font-size="10" lengthAdjust="spacingAndGlyphs" textLength="206" x="70.1" y="38.1563">com.cohorte.ethernetip.cipconnector.tools</text><line style="stroke: #A80036; stroke-width: 1.5;" x1="8" x2="306" y1="45.2656" y2="45.2656"/><rect fill="none" height="6" style="stroke: #C82930; stroke-width: 1.0;" width="6" x="15" y="53.2656"/><text fill="#000000" font-family="sans-serif" font-size="11" lengthAdjust="spacingAndGlyphs" textLength="83" x="27" y="59.9004">pattern: Pattern</text><rect fill="none" height="6" style="stroke: #C82930; stroke-width: 1.0;" width="6" x="15" y="66.2207"/><text fill="#000000" font-family="sans-serif" font-size="11" lengthAdjust="spacingAndGlyphs" textLength="93" x="27" y="72.8555">matcher: Matcher</text><rect fill="none" height="6" style="stroke: #C82930; stroke-width: 1.0;" width="6" x="15" y="79.1758"/><text fill="#000000" font-family="sans-serif" font-size="11" lengthAdjust="spacingAndGlyphs" text-decoration="underline" textLength="139" x="27" y="85.8105">CIPPATH_PATTERN: String</text><line style="stroke: #A80036; stroke-width: 1.5;" x1="8" x2="306" y1="92.1309" y2="92.1309"/><ellipse cx="18" cy="103.1309" fill="#84BE84" rx="3" ry="3" style="stroke: #038048; stroke-width: 1.0;"/><text fill="#000000" font-family="sans-serif" font-size="11" lengthAdjust="spacingAndGlyphs" textLength="130" x="27" y="106.7656">validate(String): boolean</text><ellipse cx="18" cy="116.0859" fill="#84BE84" rx="3" ry="3" style="stroke: #038048; stroke-width: 1.0;"/><text fill="#000000" font-family="sans-serif" font-size="11" lengthAdjust="spacingAndGlyphs" textLength="274" x="27" y="119.7207">connectionPathToHexValues(String): List&lt;Integer&gt;</text></a><text fill="#888888" font-family="sans-serif" font-size="10" lengthAdjust="spacingAndGlyphs" textLength="182" x="66" y="142.709">UMLDoclet 2.0.9, PlantUML 1.2020.08</text><!--MD5=[87664b338ef5dc9ee6e86a25c65005a0]
@startuml
    set namespaceSeparator none
    hide empty fields
    hide empty methods

    class "<size:14>CIPConnectionPathValidator\n<size:10>com.cohorte.ethernetip.cipconnector.tools" as com.cohorte.ethernetip.cipconnector.tools.CIPConnectionPathValidator [[CIPConnectionPathValidator.html]] {
        -pattern: Pattern
        -matcher: Matcher
        {static} -CIPPATH_PATTERN: String
        +validate(String): boolean
        +connectionPathToHexValues(String): List<Integer>
    }

    center footer UMLDoclet 2.0.9, PlantUML 1.2020.08
@enduml

PlantUML version 1.2020.08(Sun Apr 26 16:08:22 CEST 2020)
(APACHE source distribution)
Java Runtime: OpenJDK Runtime Environment
JVM: OpenJDK 64-Bit Server VM
Java Version: 14.0.2+12-46
Operating System: Mac OS X
Default Encoding: UTF-8
Language: fr
Country: FR
--></g></svg>