<?xml version="1.0" encoding="UTF-8" standalone="no"?><svg xmlns="http://www.w3.org/2000/svg" xmlns:xlink="http://www.w3.org/1999/xlink" contentScriptType="application/ecmascript" contentStyleType="text/css" height="177px" preserveAspectRatio="none" style="width:255px;height:177px;" version="1.1" viewBox="0 0 255 177" width="255px" zoomAndPan="magnify"><defs><filter height="300%" id="f1mjppis115uyq" width="300%" x="-1" y="-1"><feGaussianBlur result="blurOut" stdDeviation="2.0"/><feColorMatrix in="blurOut" result="blurOut2" type="matrix" values="0 0 0 0 0 0 0 0 0 0 0 0 0 0 0 0 0 0 .4 0"/><feOffset dx="4.0" dy="4.0" in="blurOut2" result="blurOut3"/><feBlend in="SourceGraphic" in2="blurOut3" mode="normal"/></filter></defs><g><!--MD5=[670667005c79286233ab8219b9f9534b]
class com.cohorte.ethernetip.cipconnector.tools.DeviceDiscovery--><a href="DeviceDiscovery.html" target="_top" title="DeviceDiscovery.html" xlink:actuate="onRequest" xlink:href="DeviceDiscovery.html" xlink:show="new" xlink:title="DeviceDiscovery.html" xlink:type="simple"><rect fill="#FEFECE" filter="url(#f1mjppis115uyq)" height="38.2656" id="com.cohorte.ethernetip.cipconnector.tools.DeviceDiscovery" style="stroke: #A80036; stroke-width: 1.5;" width="238" x="6" y="106"/><ellipse cx="21" cy="125.1328" fill="#ADD1B2" rx="11" ry="11" style="stroke: #A80036; stroke-width: 1.0;"/><path d="M23.4731,131.2759 Q22.8921,131.5747 22.2529,131.7241 Q21.6138,131.8735 20.9082,131.8735 Q18.4014,131.8735 17.0815,130.2217 Q15.7617,128.5698 15.7617,125.4487 Q15.7617,122.3193 17.0815,120.6675 Q18.4014,119.0156 20.9082,119.0156 Q21.6138,119.0156 22.2612,119.165 Q22.9087,119.3145 23.4731,119.6133 L23.4731,122.3359 Q22.8423,121.7549 22.2488,121.4851 Q21.6553,121.2153 21.0244,121.2153 Q19.6797,121.2153 18.9949,122.282 Q18.3101,123.3486 18.3101,125.4487 Q18.3101,127.5405 18.9949,128.6072 Q19.6797,129.6738 21.0244,129.6738 Q21.6553,129.6738 22.2488,129.4041 Q22.8423,129.1343 23.4731,128.5532 Z "/><text fill="#000000" font-family="sans-serif" font-size="14" lengthAdjust="spacingAndGlyphs" textLength="109" x="83.5" y="124.5352">DeviceDiscovery</text><text fill="#000000" font-family="sans-serif" font-size="10" lengthAdjust="spacingAndGlyphs" textLength="206" x="35" y="137.1563">com.cohorte.ethernetip.cipconnector.tools</text></a><!--MD5=[32a3cdfcded3fda9bf281289e3d34cd1]
class de.re.eeip.discoverdevices.DiscoverDevices--><a href="../../../../../de/re/eeip/discoverdevices/DiscoverDevices.html" target="_top" title="../../../../../de/re/eeip/discoverdevices/DiscoverDevices.html" xlink:actuate="onRequest" xlink:href="../../../../../de/re/eeip/discoverdevices/DiscoverDevices.html" xlink:show="new" xlink:title="../../../../../de/re/eeip/discoverdevices/DiscoverDevices.html" xlink:type="simple"><rect fill="#FEFECE" filter="url(#f1mjppis115uyq)" height="38.2656" id="de.re.eeip.discoverdevices.DiscoverDevices" style="stroke: #A80036; stroke-width: 1.5;" width="160" x="45" y="8"/><ellipse cx="60" cy="27.1328" fill="#ADD1B2" rx="11" ry="11" style="stroke: #A80036; stroke-width: 1.0;"/><path d="M62.4731,33.2759 Q61.8921,33.5747 61.2529,33.7241 Q60.6138,33.8735 59.9082,33.8735 Q57.4014,33.8735 56.0815,32.2217 Q54.7617,30.5698 54.7617,27.4487 Q54.7617,24.3193 56.0815,22.6675 Q57.4014,21.0156 59.9082,21.0156 Q60.6138,21.0156 61.2612,21.165 Q61.9087,21.3145 62.4731,21.6133 L62.4731,24.3359 Q61.8423,23.7549 61.2488,23.4851 Q60.6553,23.2153 60.0244,23.2153 Q58.6797,23.2153 57.9949,24.282 Q57.3101,25.3486 57.3101,27.4487 Q57.3101,29.5405 57.9949,30.6072 Q58.6797,31.6738 60.0244,31.6738 Q60.6553,31.6738 61.2488,31.4041 Q61.8423,31.1343 62.4731,30.5532 Z "/><text fill="#000000" font-family="sans-serif" font-size="14" lengthAdjust="spacingAndGlyphs" textLength="109" x="83.5" y="26.5352">DiscoverDevices</text><text fill="#000000" font-family="sans-serif" font-size="10" lengthAdjust="spacingAndGlyphs" textLength="128" x="74" y="39.1563">de.re.eeip.discoverdevices</text></a><!--MD5=[e30d693015e009b00839d484f35ac4a6]
reverse link de.re.eeip.discoverdevices.DiscoverDevices to com.cohorte.ethernetip.cipconnector.tools.DeviceDiscovery--><path d="M125,66.692 C125,80.1338 125,94.5458 125,105.6786 " fill="none" id="de.re.eeip.discoverdevices.DiscoverDevices&lt;-com.cohorte.ethernetip.cipconnector.tools.DeviceDiscovery" style="stroke: #A80036; stroke-width: 1.0;"/><polygon fill="none" points="118.0001,66.3617,125,46.3616,132.0001,66.3616,118.0001,66.3617" style="stroke: #A80036; stroke-width: 1.0;"/><text fill="#888888" font-family="sans-serif" font-size="10" lengthAdjust="spacingAndGlyphs" textLength="182" x="40" y="163.668">UMLDoclet 2.0.9, PlantUML 1.2020.08</text><!--MD5=[b60490adf89cb82da97ad0ba9b32a90b]
@startuml
    set namespaceSeparator none
    hide empty fields
    hide empty methods

    class "<size:14>DeviceDiscovery\n<size:10>com.cohorte.ethernetip.cipconnector.tools" as com.cohorte.ethernetip.cipconnector.tools.DeviceDiscovery [[DeviceDiscovery.html]]

    class "<size:14>DiscoverDevices\n<size:10>de.re.eeip.discoverdevices" as de.re.eeip.discoverdevices.DiscoverDevices [[../../../../../de/re/eeip/discoverdevices/DiscoverDevices.html]]

    de.re.eeip.discoverdevices.DiscoverDevices <|- - com.cohorte.ethernetip.cipconnector.tools.DeviceDiscovery

    center footer UMLDoclet 2.0.9, PlantUML 1.2020.08
@enduml

PlantUML version 1.2020.08(Sun Apr 26 16:08:22 CEST 2020)
(APACHE source distribution)
Java Runtime: OpenJDK Runtime Environment
JVM: OpenJDK 64-Bit Server VM
Java Version: 14.0.2+12-46
Operating System: Mac OS X
Default Encoding: UTF-8
Language: fr
Country: FR
--></g></svg>