<?xml version="1.0" encoding="UTF-8" standalone="no"?><svg xmlns="http://www.w3.org/2000/svg" xmlns:xlink="http://www.w3.org/1999/xlink" contentScriptType="application/ecmascript" contentStyleType="text/css" height="205px" preserveAspectRatio="none" style="width:565px;height:205px;" version="1.1" viewBox="0 0 565 205" width="565px" zoomAndPan="magnify"><defs><filter height="300%" id="fwwc5x8vbvmko" width="300%" x="-1" y="-1"><feGaussianBlur result="blurOut" stdDeviation="2.0"/><feColorMatrix in="blurOut" result="blurOut2" type="matrix" values="0 0 0 0 0 0 0 0 0 0 0 0 0 0 0 0 0 0 .4 0"/><feOffset dx="4.0" dy="4.0" in="blurOut2" result="blurOut3"/><feBlend in="SourceGraphic" in2="blurOut3" mode="normal"/></filter></defs><g><!--MD5=[cdde3b813b76de4480da7beb69d9d950]
cluster com.cohorte.ethernetip.cipconnector.tools--><polygon fill="#FFFFFF" filter="url(#fwwc5x8vbvmko)" points="14,16,318,16,325,38.4883,543,38.4883,543,164,14,164,14,16" style="stroke: #000000; stroke-width: 1.5;"/><line style="stroke: #000000; stroke-width: 1.5;" x1="14" x2="325" y1="38.4883" y2="38.4883"/><text fill="#000000" font-family="sans-serif" font-size="14" font-weight="bold" lengthAdjust="spacingAndGlyphs" textLength="298" x="18" y="31.5352">com.cohorte.ethernetip.cipconnector.tools</text><!--MD5=[559b8a13b60148c1ba726cd8c38f17f2]
class com.cohorte.ethernetip.cipconnector.tools.IPAddressValidator--><a href="IPAddressValidator.html" target="_top" title="IPAddressValidator.html" xlink:actuate="onRequest" xlink:href="IPAddressValidator.html" xlink:show="new" xlink:title="IPAddressValidator.html" xlink:type="simple"><rect fill="#FEFECE" filter="url(#fwwc5x8vbvmko)" height="99.8203" id="com.cohorte.ethernetip.cipconnector.tools.IPAddressValidator" style="stroke: #A80036; stroke-width: 1.5;" width="177" x="357.5" y="49.5"/><ellipse cx="388.25" cy="65.5" fill="#ADD1B2" rx="11" ry="11" style="stroke: #A80036; stroke-width: 1.0;"/><path d="M390.7231,71.6431 Q390.1421,71.9419 389.5029,72.0913 Q388.8638,72.2407 388.1582,72.2407 Q385.6514,72.2407 384.3315,70.5889 Q383.0117,68.937 383.0117,65.8159 Q383.0117,62.6865 384.3315,61.0347 Q385.6514,59.3828 388.1582,59.3828 Q388.8638,59.3828 389.5112,59.5322 Q390.1587,59.6816 390.7231,59.9805 L390.7231,62.7031 Q390.0923,62.1221 389.4988,61.8523 Q388.9053,61.5825 388.2744,61.5825 Q386.9297,61.5825 386.2449,62.6492 Q385.5601,63.7158 385.5601,65.8159 Q385.5601,67.9077 386.2449,68.9744 Q386.9297,70.041 388.2744,70.041 Q388.9053,70.041 389.4988,69.7712 Q390.0923,69.5015 390.7231,68.9204 Z "/><text fill="#000000" font-family="sans-serif" font-size="12" lengthAdjust="spacingAndGlyphs" textLength="110" x="405.75" y="70.0352">IPAddressValidator</text><line style="stroke: #A80036; stroke-width: 1.5;" x1="358.5" x2="533.5" y1="81.5" y2="81.5"/><rect fill="none" height="6" style="stroke: #C82930; stroke-width: 1.0;" width="6" x="365.5" y="89.5"/><text fill="#000000" font-family="sans-serif" font-size="11" lengthAdjust="spacingAndGlyphs" textLength="83" x="377.5" y="96.1348">pattern: Pattern</text><rect fill="none" height="6" style="stroke: #C82930; stroke-width: 1.0;" width="6" x="365.5" y="102.4551"/><text fill="#000000" font-family="sans-serif" font-size="11" lengthAdjust="spacingAndGlyphs" textLength="93" x="377.5" y="109.0898">matcher: Matcher</text><rect fill="none" height="6" style="stroke: #C82930; stroke-width: 1.0;" width="6" x="365.5" y="115.4102"/><text fill="#000000" font-family="sans-serif" font-size="11" lengthAdjust="spacingAndGlyphs" text-decoration="underline" textLength="151" x="377.5" y="122.0449">IPADDRESS_PATTERN: String</text><line style="stroke: #A80036; stroke-width: 1.5;" x1="358.5" x2="533.5" y1="128.3652" y2="128.3652"/><ellipse cx="368.5" cy="139.3652" fill="#84BE84" rx="3" ry="3" style="stroke: #038048; stroke-width: 1.0;"/><text fill="#000000" font-family="sans-serif" font-size="11" lengthAdjust="spacingAndGlyphs" textLength="130" x="377.5" y="143">validate(String): boolean</text></a><!--MD5=[dc5f9050b1bb5df4066d15a6829d31ad]
class com.cohorte.ethernetip.cipconnector.tools.CIPConnectionPathValidator--><a href="CIPConnectionPathValidator.html" target="_top" title="CIPConnectionPathValidator.html" xlink:actuate="onRequest" xlink:href="CIPConnectionPathValidator.html" xlink:show="new" xlink:title="CIPConnectionPathValidator.html" xlink:type="simple"><rect fill="#FEFECE" filter="url(#fwwc5x8vbvmko)" height="112.7754" id="com.cohorte.ethernetip.cipconnector.tools.CIPConnectionPathValidator" style="stroke: #A80036; stroke-width: 1.5;" width="300" x="22" y="43"/><ellipse cx="88.75" cy="59" fill="#ADD1B2" rx="11" ry="11" style="stroke: #A80036; stroke-width: 1.0;"/><path d="M91.2231,65.1431 Q90.6421,65.4419 90.0029,65.5913 Q89.3638,65.7407 88.6582,65.7407 Q86.1514,65.7407 84.8315,64.0889 Q83.5117,62.437 83.5117,59.3159 Q83.5117,56.1865 84.8315,54.5347 Q86.1514,52.8828 88.6582,52.8828 Q89.3638,52.8828 90.0112,53.0322 Q90.6587,53.1816 91.2231,53.4805 L91.2231,56.2031 Q90.5923,55.6221 89.9988,55.3523 Q89.4053,55.0825 88.7744,55.0825 Q87.4297,55.0825 86.7449,56.1492 Q86.0601,57.2158 86.0601,59.3159 Q86.0601,61.4077 86.7449,62.4744 Q87.4297,63.541 88.7744,63.541 Q89.4053,63.541 89.9988,63.2712 Q90.5923,63.0015 91.2231,62.4204 Z "/><text fill="#000000" font-family="sans-serif" font-size="12" lengthAdjust="spacingAndGlyphs" textLength="158" x="109.25" y="63.5352">CIPConnectionPathValidator</text><line style="stroke: #A80036; stroke-width: 1.5;" x1="23" x2="321" y1="75" y2="75"/><rect fill="none" height="6" style="stroke: #C82930; stroke-width: 1.0;" width="6" x="30" y="83"/><text fill="#000000" font-family="sans-serif" font-size="11" lengthAdjust="spacingAndGlyphs" textLength="83" x="42" y="89.6348">pattern: Pattern</text><rect fill="none" height="6" style="stroke: #C82930; stroke-width: 1.0;" width="6" x="30" y="95.9551"/><text fill="#000000" font-family="sans-serif" font-size="11" lengthAdjust="spacingAndGlyphs" textLength="93" x="42" y="102.5898">matcher: Matcher</text><rect fill="none" height="6" style="stroke: #C82930; stroke-width: 1.0;" width="6" x="30" y="108.9102"/><text fill="#000000" font-family="sans-serif" font-size="11" lengthAdjust="spacingAndGlyphs" text-decoration="underline" textLength="139" x="42" y="115.5449">CIPPATH_PATTERN: String</text><line style="stroke: #A80036; stroke-width: 1.5;" x1="23" x2="321" y1="121.8652" y2="121.8652"/><ellipse cx="33" cy="132.8652" fill="#84BE84" rx="3" ry="3" style="stroke: #038048; stroke-width: 1.0;"/><text fill="#000000" font-family="sans-serif" font-size="11" lengthAdjust="spacingAndGlyphs" textLength="130" x="42" y="136.5">validate(String): boolean</text><ellipse cx="33" cy="145.8203" fill="#84BE84" rx="3" ry="3" style="stroke: #038048; stroke-width: 1.0;"/><text fill="#000000" font-family="sans-serif" font-size="11" lengthAdjust="spacingAndGlyphs" textLength="274" x="42" y="149.4551">connectionPathToHexValues(String): List&lt;Integer&gt;</text></a><text fill="#888888" font-family="sans-serif" font-size="10" lengthAdjust="spacingAndGlyphs" textLength="182" x="193.5" y="191.668">UMLDoclet 2.0.9, PlantUML 1.2020.08</text><!--MD5=[260aac79e893456c88db9f3c98f0fc88]
@startuml
    namespace com.cohorte.ethernetip.cipconnector.tools {

        class IPAddressValidator [[IPAddressValidator.html]] {
            -pattern: Pattern
            -matcher: Matcher
            {static} -IPADDRESS_PATTERN: String
            +validate(String): boolean
        }

        class CIPConnectionPathValidator [[CIPConnectionPathValidator.html]] {
            -pattern: Pattern
            -matcher: Matcher
            {static} -CIPPATH_PATTERN: String
            +validate(String): boolean
            +connectionPathToHexValues(String): List<Integer>
        }

    }

    center footer UMLDoclet 2.0.9, PlantUML 1.2020.08
@enduml

PlantUML version 1.2020.08(Sun Apr 26 16:08:22 CEST 2020)
(APACHE source distribution)
Java Runtime: OpenJDK Runtime Environment
JVM: OpenJDK 64-Bit Server VM
Java Version: 14.0.2+12-46
Operating System: Mac OS X
Default Encoding: UTF-8
Language: fr
Country: FR
--></g></svg>