<?xml version="1.0" encoding="UTF-8" standalone="no"?><svg xmlns="http://www.w3.org/2000/svg" xmlns:xlink="http://www.w3.org/1999/xlink" contentScriptType="application/ecmascript" contentStyleType="text/css" height="220px" preserveAspectRatio="none" style="width:239px;height:220px;" version="1.1" viewBox="0 0 239 220" width="239px" zoomAndPan="magnify"><defs><filter height="300%" id="f1kt979rvau44z" width="300%" x="-1" y="-1"><feGaussianBlur result="blurOut" stdDeviation="2.0"/><feColorMatrix in="blurOut" result="blurOut2" type="matrix" values="0 0 0 0 0 0 0 0 0 0 0 0 0 0 0 0 0 0 .4 0"/><feOffset dx="4.0" dy="4.0" in="blurOut2" result="blurOut3"/><feBlend in="SourceGraphic" in2="blurOut3" mode="normal"/></filter></defs><g><!--MD5=[0a306f01c5a68bddeb3e7b33572ef819]
class de.re.eeip.encapsulation.datatypes.CommonPacketFormat--><a href="CommonPacketFormat.html" target="_top" title="CommonPacketFormat.html" xlink:actuate="onRequest" xlink:href="CommonPacketFormat.html" xlink:show="new" xlink:title="CommonPacketFormat.html" xlink:type="simple"><rect fill="#FEFECE" filter="url(#f1kt979rvau44z)" height="183.8164" id="de.re.eeip.encapsulation.datatypes.CommonPacketFormat" style="stroke: #A80036; stroke-width: 1.5;" width="221" x="7" y="7"/><ellipse cx="30.1" cy="26.1328" fill="#ADD1B2" rx="11" ry="11" style="stroke: #A80036; stroke-width: 1.0;"/><path d="M32.5731,32.2759 Q31.9921,32.5747 31.3529,32.7241 Q30.7138,32.8735 30.0082,32.8735 Q27.5014,32.8735 26.1815,31.2217 Q24.8617,29.5698 24.8617,26.4487 Q24.8617,23.3193 26.1815,21.6675 Q27.5014,20.0156 30.0082,20.0156 Q30.7138,20.0156 31.3612,20.165 Q32.0087,20.3145 32.5731,20.6133 L32.5731,23.3359 Q31.9423,22.7549 31.3488,22.4851 Q30.7553,22.2153 30.1244,22.2153 Q28.7797,22.2153 28.0949,23.282 Q27.4101,24.3486 27.4101,26.4487 Q27.4101,28.5405 28.0949,29.6072 Q28.7797,30.6738 30.1244,30.6738 Q30.7553,30.6738 31.3488,30.4041 Q31.9423,30.1343 32.5731,29.5532 Z "/><text fill="#000000" font-family="sans-serif" font-size="14" lengthAdjust="spacingAndGlyphs" textLength="156" x="53.4" y="25.5352">CommonPacketFormat</text><text fill="#000000" font-family="sans-serif" font-size="10" lengthAdjust="spacingAndGlyphs" textLength="171" x="45.9" y="38.1563">de.re.eeip.encapsulation.datatypes</text><line style="stroke: #A80036; stroke-width: 1.5;" x1="8" x2="227" y1="45.2656" y2="45.2656"/><ellipse cx="18" cy="56.2656" fill="none" rx="3" ry="3" style="stroke: #038048; stroke-width: 1.0;"/><text fill="#000000" font-family="sans-serif" font-size="11" lengthAdjust="spacingAndGlyphs" textLength="76" x="27" y="59.9004">ItemCount: int</text><ellipse cx="18" cy="69.2207" fill="none" rx="3" ry="3" style="stroke: #038048; stroke-width: 1.0;"/><text fill="#000000" font-family="sans-serif" font-size="11" lengthAdjust="spacingAndGlyphs" textLength="88" x="27" y="72.8555">AddressItem: int</text><ellipse cx="18" cy="82.1758" fill="none" rx="3" ry="3" style="stroke: #038048; stroke-width: 1.0;"/><text fill="#000000" font-family="sans-serif" font-size="11" lengthAdjust="spacingAndGlyphs" textLength="102" x="27" y="85.8105">AddressLength: int</text><ellipse cx="18" cy="95.1309" fill="none" rx="3" ry="3" style="stroke: #038048; stroke-width: 1.0;"/><text fill="#000000" font-family="sans-serif" font-size="11" lengthAdjust="spacingAndGlyphs" textLength="67" x="27" y="98.7656">DataItem: int</text><ellipse cx="18" cy="108.0859" fill="none" rx="3" ry="3" style="stroke: #038048; stroke-width: 1.0;"/><text fill="#000000" font-family="sans-serif" font-size="11" lengthAdjust="spacingAndGlyphs" textLength="81" x="27" y="111.7207">DataLength: int</text><ellipse cx="18" cy="121.041" fill="none" rx="3" ry="3" style="stroke: #038048; stroke-width: 1.0;"/><text fill="#000000" font-family="sans-serif" font-size="11" lengthAdjust="spacingAndGlyphs" textLength="79" x="27" y="124.6758">Data: ArrayList</text><ellipse cx="18" cy="133.9961" fill="none" rx="3" ry="3" style="stroke: #038048; stroke-width: 1.0;"/><text fill="#000000" font-family="sans-serif" font-size="11" lengthAdjust="spacingAndGlyphs" textLength="142" x="27" y="137.6309">SockaddrInfoItem_O_T: int</text><ellipse cx="18" cy="146.9512" fill="none" rx="3" ry="3" style="stroke: #038048; stroke-width: 1.0;"/><text fill="#000000" font-family="sans-serif" font-size="11" lengthAdjust="spacingAndGlyphs" textLength="128" x="27" y="150.5859">SockaddrInfoLength: int</text><ellipse cx="18" cy="159.9063" fill="none" rx="3" ry="3" style="stroke: #038048; stroke-width: 1.0;"/><text fill="#000000" font-family="sans-serif" font-size="11" lengthAdjust="spacingAndGlyphs" textLength="195" x="27" y="163.541">SocketaddrInfo_O_T: SocketAddress</text><line style="stroke: #A80036; stroke-width: 1.5;" x1="8" x2="227" y1="169.8613" y2="169.8613"/><ellipse cx="18" cy="180.8613" fill="#84BE84" rx="3" ry="3" style="stroke: #038048; stroke-width: 1.0;"/><text fill="#000000" font-family="sans-serif" font-size="11" lengthAdjust="spacingAndGlyphs" textLength="84" x="27" y="184.4961">toBytes(): byte[]</text></a><text fill="#888888" font-family="sans-serif" font-size="10" lengthAdjust="spacingAndGlyphs" textLength="182" x="26.5" y="207.4844">UMLDoclet 2.0.9, PlantUML 1.2020.08</text><!--MD5=[3f5c3eb18ae5af15acb39bc7ff376fa0]
@startuml
    set namespaceSeparator none
    hide empty fields
    hide empty methods

    class "<size:14>CommonPacketFormat\n<size:10>de.re.eeip.encapsulation.datatypes" as de.re.eeip.encapsulation.datatypes.CommonPacketFormat [[CommonPacketFormat.html]] {
        +ItemCount: int
        +AddressItem: int
        +AddressLength: int
        +DataItem: int
        +DataLength: int
        +Data: ArrayList
        +SockaddrInfoItem_O_T: int
        +SockaddrInfoLength: int
        +SocketaddrInfo_O_T: SocketAddress
        +toBytes(): byte[]
    }

    center footer UMLDoclet 2.0.9, PlantUML 1.2020.08
@enduml

PlantUML version 1.2020.08(Sun Apr 26 16:08:22 CEST 2020)
(APACHE source distribution)
Java Runtime: OpenJDK Runtime Environment
JVM: OpenJDK 64-Bit Server VM
Java Version: 14.0.2+12-46
Operating System: Mac OS X
Default Encoding: UTF-8
Language: fr
Country: FR
--></g></svg>