<?xml version="1.0" encoding="UTF-8" standalone="no"?><svg xmlns="http://www.w3.org/2000/svg" xmlns:xlink="http://www.w3.org/1999/xlink" contentScriptType="application/ecmascript" contentStyleType="text/css" height="547px" preserveAspectRatio="none" style="width:648px;height:547px;" version="1.1" viewBox="0 0 648 547" width="648px" zoomAndPan="magnify"><defs><filter height="300%" id="f1rpcy3at2bwvg" width="300%" x="-1" y="-1"><feGaussianBlur result="blurOut" stdDeviation="2.0"/><feColorMatrix in="blurOut" result="blurOut2" type="matrix" values="0 0 0 0 0 0 0 0 0 0 0 0 0 0 0 0 0 0 .4 0"/><feOffset dx="4.0" dy="4.0" in="blurOut2" result="blurOut3"/><feBlend in="SourceGraphic" in2="blurOut3" mode="normal"/></filter></defs><g><!--MD5=[57793c0cc01645f5a98ea392eeaf3c14]
cluster de.re.eeip.encapsulation.datatypes--><polygon fill="#FFFFFF" filter="url(#f1rpcy3at2bwvg)" points="14,16,263,16,270,38.4883,626,38.4883,626,506,14,506,14,16" style="stroke: #000000; stroke-width: 1.5;"/><line style="stroke: #000000; stroke-width: 1.5;" x1="14" x2="270" y1="38.4883" y2="38.4883"/><text fill="#000000" font-family="sans-serif" font-size="14" font-weight="bold" lengthAdjust="spacingAndGlyphs" textLength="243" x="18" y="31.5352">de.re.eeip.encapsulation.datatypes</text><!--MD5=[a223bbaa4f308f2475423e1b954d7dc8]
class de.re.eeip.encapsulation.datatypes.SocketAddress--><a href="SocketAddress.html" target="_top" title="SocketAddress.html" xlink:actuate="onRequest" xlink:href="SocketAddress.html" xlink:show="new" xlink:title="SocketAddress.html" xlink:type="simple"><rect fill="#FEFECE" filter="url(#f1rpcy3at2bwvg)" height="99.8203" id="de.re.eeip.encapsulation.datatypes.SocketAddress" style="stroke: #A80036; stroke-width: 1.5;" width="124" x="297" y="398"/><ellipse cx="315.15" cy="414" fill="#ADD1B2" rx="11" ry="11" style="stroke: #A80036; stroke-width: 1.0;"/><path d="M317.6231,420.1431 Q317.0421,420.4419 316.4029,420.5913 Q315.7638,420.7407 315.0582,420.7407 Q312.5514,420.7407 311.2315,419.0889 Q309.9117,417.437 309.9117,414.3159 Q309.9117,411.1865 311.2315,409.5347 Q312.5514,407.8828 315.0582,407.8828 Q315.7638,407.8828 316.4112,408.0322 Q317.0587,408.1816 317.6231,408.4805 L317.6231,411.2031 Q316.9923,410.6221 316.3988,410.3523 Q315.8053,410.0825 315.1744,410.0825 Q313.8297,410.0825 313.1449,411.1492 Q312.4601,412.2158 312.4601,414.3159 Q312.4601,416.4077 313.1449,417.4744 Q313.8297,418.541 315.1744,418.541 Q315.8053,418.541 316.3988,418.2712 Q316.9923,418.0015 317.6231,417.4204 Z "/><text fill="#000000" font-family="sans-serif" font-size="12" lengthAdjust="spacingAndGlyphs" textLength="85" x="329.85" y="418.5352">SocketAddress</text><line style="stroke: #A80036; stroke-width: 1.5;" x1="298" x2="420" y1="430" y2="430"/><ellipse cx="308" cy="441" fill="none" rx="3" ry="3" style="stroke: #038048; stroke-width: 1.0;"/><text fill="#000000" font-family="sans-serif" font-size="11" lengthAdjust="spacingAndGlyphs" textLength="75" x="317" y="444.6348">SIN_family: int</text><ellipse cx="308" cy="453.9551" fill="none" rx="3" ry="3" style="stroke: #038048; stroke-width: 1.0;"/><text fill="#000000" font-family="sans-serif" font-size="11" lengthAdjust="spacingAndGlyphs" textLength="76" x="317" y="457.5898">SIN_port: long</text><ellipse cx="308" cy="466.9102" fill="none" rx="3" ry="3" style="stroke: #038048; stroke-width: 1.0;"/><text fill="#000000" font-family="sans-serif" font-size="11" lengthAdjust="spacingAndGlyphs" textLength="98" x="317" y="470.5449">SIN_Address: long</text><ellipse cx="308" cy="479.8652" fill="none" rx="3" ry="3" style="stroke: #038048; stroke-width: 1.0;"/><text fill="#000000" font-family="sans-serif" font-size="11" lengthAdjust="spacingAndGlyphs" textLength="85" x="317" y="483.5">SIN_Zero: byte[]</text><line style="stroke: #A80036; stroke-width: 1.5;" x1="298" x2="420" y1="489.8203" y2="489.8203"/></a><!--MD5=[b429a60e38b07056c7c510d250db21ae]
class de.re.eeip.encapsulation.datatypes.CommandsEnum--><a href="CommandsEnum.html" target="_top" title="CommandsEnum.html" xlink:actuate="onRequest" xlink:href="CommandsEnum.html" xlink:show="new" xlink:title="CommandsEnum.html" xlink:type="simple"><rect fill="#FEFECE" filter="url(#f1rpcy3at2bwvg)" height="216.416" id="de.re.eeip.encapsulation.datatypes.CommandsEnum" style="stroke: #A80036; stroke-width: 1.5;" width="139" x="478.5" y="43"/><ellipse cx="498" cy="59" fill="#EB937F" rx="11" ry="11" style="stroke: #A80036; stroke-width: 1.0;"/><path d="M501.6143,65.5 L493.8945,65.5 L493.8945,53.1069 L501.6143,53.1069 L501.6143,55.2651 L496.3433,55.2651 L496.3433,57.938 L501.1162,57.938 L501.1162,60.0962 L496.3433,60.0962 L496.3433,63.3418 L501.6143,63.3418 Z "/><text fill="#000000" font-family="sans-serif" font-size="12" lengthAdjust="spacingAndGlyphs" textLength="97" x="513" y="63.5352">CommandsEnum</text><line style="stroke: #A80036; stroke-width: 1.5;" x1="479.5" x2="616.5" y1="75" y2="75"/><ellipse cx="489.5" cy="86" fill="none" rx="3" ry="3" style="stroke: #038048; stroke-width: 1.0;"/><text fill="#000000" font-family="sans-serif" font-size="11" lengthAdjust="spacingAndGlyphs" text-decoration="underline" textLength="23" x="498.5" y="89.6348">NOP</text><ellipse cx="489.5" cy="98.9551" fill="none" rx="3" ry="3" style="stroke: #038048; stroke-width: 1.0;"/><text fill="#000000" font-family="sans-serif" font-size="11" lengthAdjust="spacingAndGlyphs" text-decoration="underline" textLength="63" x="498.5" y="102.5898">ListServices</text><ellipse cx="489.5" cy="111.9102" fill="none" rx="3" ry="3" style="stroke: #038048; stroke-width: 1.0;"/><text fill="#000000" font-family="sans-serif" font-size="11" lengthAdjust="spacingAndGlyphs" text-decoration="underline" textLength="59" x="498.5" y="115.5449">ListIdentity</text><ellipse cx="489.5" cy="124.8652" fill="none" rx="3" ry="3" style="stroke: #038048; stroke-width: 1.0;"/><text fill="#000000" font-family="sans-serif" font-size="11" lengthAdjust="spacingAndGlyphs" text-decoration="underline" textLength="72" x="498.5" y="128.5">ListInterfaces</text><ellipse cx="489.5" cy="137.8203" fill="none" rx="3" ry="3" style="stroke: #038048; stroke-width: 1.0;"/><text fill="#000000" font-family="sans-serif" font-size="11" lengthAdjust="spacingAndGlyphs" text-decoration="underline" textLength="85" x="498.5" y="141.4551">RegisterSession</text><ellipse cx="489.5" cy="150.7754" fill="none" rx="3" ry="3" style="stroke: #038048; stroke-width: 1.0;"/><text fill="#000000" font-family="sans-serif" font-size="11" lengthAdjust="spacingAndGlyphs" text-decoration="underline" textLength="100" x="498.5" y="154.4102">UnRegisterSession</text><ellipse cx="489.5" cy="163.7305" fill="none" rx="3" ry="3" style="stroke: #038048; stroke-width: 1.0;"/><text fill="#000000" font-family="sans-serif" font-size="11" lengthAdjust="spacingAndGlyphs" text-decoration="underline" textLength="64" x="498.5" y="167.3652">SendRRData</text><ellipse cx="489.5" cy="176.6855" fill="none" rx="3" ry="3" style="stroke: #038048; stroke-width: 1.0;"/><text fill="#000000" font-family="sans-serif" font-size="11" lengthAdjust="spacingAndGlyphs" text-decoration="underline" textLength="72" x="498.5" y="180.3203">SendUnitData</text><ellipse cx="489.5" cy="189.6406" fill="none" rx="3" ry="3" style="stroke: #038048; stroke-width: 1.0;"/><text fill="#000000" font-family="sans-serif" font-size="11" lengthAdjust="spacingAndGlyphs" text-decoration="underline" textLength="75" x="498.5" y="193.2754">IndicateStatus</text><ellipse cx="489.5" cy="202.5957" fill="none" rx="3" ry="3" style="stroke: #038048; stroke-width: 1.0;"/><text fill="#000000" font-family="sans-serif" font-size="11" lengthAdjust="spacingAndGlyphs" text-decoration="underline" textLength="36" x="498.5" y="206.2305">Cancel</text><rect fill="none" height="6" style="stroke: #C82930; stroke-width: 1.0;" width="6" x="486.5" y="212.5508"/><text fill="#000000" font-family="sans-serif" font-size="11" lengthAdjust="spacingAndGlyphs" textLength="48" x="498.5" y="219.1855">value: int</text><line style="stroke: #A80036; stroke-width: 1.5;" x1="479.5" x2="616.5" y1="225.5059" y2="225.5059"/><rect fill="#F24D5C" height="6" style="stroke: #C82930; stroke-width: 1.0;" width="6" x="486.5" y="233.5059"/><text fill="#000000" font-family="sans-serif" font-size="11" lengthAdjust="spacingAndGlyphs" textLength="113" x="498.5" y="240.1406">CommandsEnum(int)</text><ellipse cx="489.5" cy="249.4609" fill="#84BE84" rx="3" ry="3" style="stroke: #038048; stroke-width: 1.0;"/><text fill="#000000" font-family="sans-serif" font-size="11" lengthAdjust="spacingAndGlyphs" textLength="74" x="498.5" y="253.0957">getValue(): int</text></a><!--MD5=[0a306f01c5a68bddeb3e7b33572ef819]
class de.re.eeip.encapsulation.datatypes.CommonPacketFormat--><a href="CommonPacketFormat.html" target="_top" title="CommonPacketFormat.html" xlink:actuate="onRequest" xlink:href="CommonPacketFormat.html" xlink:show="new" xlink:title="CommonPacketFormat.html" xlink:type="simple"><rect fill="#FEFECE" filter="url(#f1rpcy3at2bwvg)" height="164.5957" id="de.re.eeip.encapsulation.datatypes.CommonPacketFormat" style="stroke: #A80036; stroke-width: 1.5;" width="168" x="275" y="68.5"/><ellipse cx="293.15" cy="84.5" fill="#ADD1B2" rx="11" ry="11" style="stroke: #A80036; stroke-width: 1.0;"/><path d="M295.6231,90.6431 Q295.0421,90.9419 294.4029,91.0913 Q293.7638,91.2407 293.0582,91.2407 Q290.5514,91.2407 289.2315,89.5889 Q287.9117,87.937 287.9117,84.8159 Q287.9117,81.6865 289.2315,80.0347 Q290.5514,78.3828 293.0582,78.3828 Q293.7638,78.3828 294.4112,78.5322 Q295.0587,78.6816 295.6231,78.9805 L295.6231,81.7031 Q294.9923,81.1221 294.3988,80.8523 Q293.8053,80.5825 293.1744,80.5825 Q291.8297,80.5825 291.1449,81.6492 Q290.4601,82.7158 290.4601,84.8159 Q290.4601,86.9077 291.1449,87.9744 Q291.8297,89.041 293.1744,89.041 Q293.8053,89.041 294.3988,88.7712 Q294.9923,88.5015 295.6231,87.9204 Z "/><text fill="#000000" font-family="sans-serif" font-size="12" lengthAdjust="spacingAndGlyphs" textLength="129" x="307.85" y="89.0352">CommonPacketFormat</text><line style="stroke: #A80036; stroke-width: 1.5;" x1="276" x2="442" y1="100.5" y2="100.5"/><ellipse cx="286" cy="111.5" fill="none" rx="3" ry="3" style="stroke: #038048; stroke-width: 1.0;"/><text fill="#000000" font-family="sans-serif" font-size="11" lengthAdjust="spacingAndGlyphs" textLength="76" x="295" y="115.1348">ItemCount: int</text><ellipse cx="286" cy="124.4551" fill="none" rx="3" ry="3" style="stroke: #038048; stroke-width: 1.0;"/><text fill="#000000" font-family="sans-serif" font-size="11" lengthAdjust="spacingAndGlyphs" textLength="88" x="295" y="128.0898">AddressItem: int</text><ellipse cx="286" cy="137.4102" fill="none" rx="3" ry="3" style="stroke: #038048; stroke-width: 1.0;"/><text fill="#000000" font-family="sans-serif" font-size="11" lengthAdjust="spacingAndGlyphs" textLength="102" x="295" y="141.0449">AddressLength: int</text><ellipse cx="286" cy="150.3652" fill="none" rx="3" ry="3" style="stroke: #038048; stroke-width: 1.0;"/><text fill="#000000" font-family="sans-serif" font-size="11" lengthAdjust="spacingAndGlyphs" textLength="67" x="295" y="154">DataItem: int</text><ellipse cx="286" cy="163.3203" fill="none" rx="3" ry="3" style="stroke: #038048; stroke-width: 1.0;"/><text fill="#000000" font-family="sans-serif" font-size="11" lengthAdjust="spacingAndGlyphs" textLength="81" x="295" y="166.9551">DataLength: int</text><ellipse cx="286" cy="176.2754" fill="none" rx="3" ry="3" style="stroke: #038048; stroke-width: 1.0;"/><text fill="#000000" font-family="sans-serif" font-size="11" lengthAdjust="spacingAndGlyphs" textLength="79" x="295" y="179.9102">Data: ArrayList</text><ellipse cx="286" cy="189.2305" fill="none" rx="3" ry="3" style="stroke: #038048; stroke-width: 1.0;"/><text fill="#000000" font-family="sans-serif" font-size="11" lengthAdjust="spacingAndGlyphs" textLength="142" x="295" y="192.8652">SockaddrInfoItem_O_T: int</text><ellipse cx="286" cy="202.1855" fill="none" rx="3" ry="3" style="stroke: #038048; stroke-width: 1.0;"/><text fill="#000000" font-family="sans-serif" font-size="11" lengthAdjust="spacingAndGlyphs" textLength="128" x="295" y="205.8203">SockaddrInfoLength: int</text><line style="stroke: #A80036; stroke-width: 1.5;" x1="276" x2="442" y1="212.1406" y2="212.1406"/><ellipse cx="286" cy="223.1406" fill="#84BE84" rx="3" ry="3" style="stroke: #038048; stroke-width: 1.0;"/><text fill="#000000" font-family="sans-serif" font-size="11" lengthAdjust="spacingAndGlyphs" textLength="84" x="295" y="226.7754">toBytes(): byte[]</text></a><!--MD5=[817b17a8a2c4e16065af4a4869c42edc]
class de.re.eeip.encapsulation.datatypes.StatusEnum--><a href="StatusEnum.html" target="_top" title="StatusEnum.html" xlink:actuate="onRequest" xlink:href="StatusEnum.html" xlink:show="new" xlink:title="StatusEnum.html" xlink:type="simple"><rect fill="#FEFECE" filter="url(#f1rpcy3at2bwvg)" height="177.5508" id="de.re.eeip.encapsulation.datatypes.StatusEnum" style="stroke: #A80036; stroke-width: 1.5;" width="217" x="22.5" y="62"/><ellipse cx="93.75" cy="78" fill="#EB937F" rx="11" ry="11" style="stroke: #A80036; stroke-width: 1.0;"/><path d="M97.3643,84.5 L89.6445,84.5 L89.6445,72.1069 L97.3643,72.1069 L97.3643,74.2651 L92.0933,74.2651 L92.0933,76.938 L96.8662,76.938 L96.8662,79.0962 L92.0933,79.0962 L92.0933,82.3418 L97.3643,82.3418 Z "/><text fill="#000000" font-family="sans-serif" font-size="12" lengthAdjust="spacingAndGlyphs" textLength="66" x="114.25" y="82.5352">StatusEnum</text><line style="stroke: #A80036; stroke-width: 1.5;" x1="23.5" x2="238.5" y1="94" y2="94"/><ellipse cx="33.5" cy="105" fill="none" rx="3" ry="3" style="stroke: #038048; stroke-width: 1.0;"/><text fill="#000000" font-family="sans-serif" font-size="11" lengthAdjust="spacingAndGlyphs" text-decoration="underline" textLength="43" x="42.5" y="108.6348">Success</text><ellipse cx="33.5" cy="117.9551" fill="none" rx="3" ry="3" style="stroke: #038048; stroke-width: 1.0;"/><text fill="#000000" font-family="sans-serif" font-size="11" lengthAdjust="spacingAndGlyphs" text-decoration="underline" textLength="90" x="42.5" y="121.5898">InvalidCommand</text><ellipse cx="33.5" cy="130.9102" fill="none" rx="3" ry="3" style="stroke: #038048; stroke-width: 1.0;"/><text fill="#000000" font-family="sans-serif" font-size="11" lengthAdjust="spacingAndGlyphs" text-decoration="underline" textLength="103" x="42.5" y="134.5449">InsufficientMemory</text><ellipse cx="33.5" cy="143.8652" fill="none" rx="3" ry="3" style="stroke: #038048; stroke-width: 1.0;"/><text fill="#000000" font-family="sans-serif" font-size="11" lengthAdjust="spacingAndGlyphs" text-decoration="underline" textLength="73" x="42.5" y="147.5">IncorrectData</text><ellipse cx="33.5" cy="156.8203" fill="none" rx="3" ry="3" style="stroke: #038048; stroke-width: 1.0;"/><text fill="#000000" font-family="sans-serif" font-size="11" lengthAdjust="spacingAndGlyphs" text-decoration="underline" textLength="113" x="42.5" y="160.4551">InvalidSessionHandle</text><ellipse cx="33.5" cy="169.7754" fill="none" rx="3" ry="3" style="stroke: #038048; stroke-width: 1.0;"/><text fill="#000000" font-family="sans-serif" font-size="11" lengthAdjust="spacingAndGlyphs" text-decoration="underline" textLength="72" x="42.5" y="173.4102">InvalidLength</text><ellipse cx="33.5" cy="182.7305" fill="none" rx="3" ry="3" style="stroke: #038048; stroke-width: 1.0;"/><text fill="#000000" font-family="sans-serif" font-size="11" lengthAdjust="spacingAndGlyphs" text-decoration="underline" textLength="191" x="42.5" y="186.3652">UnsupportedEncapsulationProtocol</text><rect fill="none" height="6" style="stroke: #C82930; stroke-width: 1.0;" width="6" x="30.5" y="192.6855"/><text fill="#000000" font-family="sans-serif" font-size="11" lengthAdjust="spacingAndGlyphs" textLength="48" x="42.5" y="199.3203">value: int</text><line style="stroke: #A80036; stroke-width: 1.5;" x1="23.5" x2="238.5" y1="205.6406" y2="205.6406"/><rect fill="#F24D5C" height="6" style="stroke: #C82930; stroke-width: 1.0;" width="6" x="30.5" y="213.6406"/><text fill="#000000" font-family="sans-serif" font-size="11" lengthAdjust="spacingAndGlyphs" textLength="85" x="42.5" y="220.2754">StatusEnum(int)</text><ellipse cx="33.5" cy="229.5957" fill="#84BE84" rx="3" ry="3" style="stroke: #038048; stroke-width: 1.0;"/><text fill="#000000" font-family="sans-serif" font-size="11" lengthAdjust="spacingAndGlyphs" textLength="74" x="42.5" y="233.2305">getValue(): int</text></a><!--MD5=[df525518f933ce176b9ff2492f78236e]
link de.re.eeip.encapsulation.datatypes.CommonPacketFormat to de.re.eeip.encapsulation.datatypes.SocketAddress--><path d="M359,233.7311 C359,284.4692 359,348.0442 359,392.7198 " fill="none" id="de.re.eeip.encapsulation.datatypes.CommonPacketFormat-&gt;de.re.eeip.encapsulation.datatypes.SocketAddress" style="stroke: #A80036; stroke-width: 1.0;"/><polygon fill="#A80036" points="359,397.7991,363,388.7991,359,392.7991,355,388.7991,359,397.7991" style="stroke: #A80036; stroke-width: 1.0;"/><text fill="#000000" font-family="sans-serif" font-size="13" lengthAdjust="spacingAndGlyphs" textLength="127" x="360" y="333.5684">SocketaddrInfo_O_T</text><text fill="#888888" font-family="sans-serif" font-size="10" lengthAdjust="spacingAndGlyphs" textLength="182" x="235" y="533.668">UMLDoclet 2.0.9, PlantUML 1.2020.08</text><!--MD5=[b0d3db070098b7da9859c982d8ba708f]
@startuml
    namespace de.re.eeip.encapsulation.datatypes {

        class SocketAddress [[SocketAddress.html]] {
            +SIN_family: int
            +SIN_port: long
            +SIN_Address: long
            +SIN_Zero: byte[]
        }

        enum CommandsEnum [[CommandsEnum.html]] {
            {static} +NOP
            {static} +ListServices
            {static} +ListIdentity
            {static} +ListInterfaces
            {static} +RegisterSession
            {static} +UnRegisterSession
            {static} +SendRRData
            {static} +SendUnitData
            {static} +IndicateStatus
            {static} +Cancel
            -value: int
            -CommandsEnum(int)
            +getValue(): int
        }

        class CommonPacketFormat [[CommonPacketFormat.html]] {
            +ItemCount: int
            +AddressItem: int
            +AddressLength: int
            +DataItem: int
            +DataLength: int
            +Data: ArrayList
            +SockaddrInfoItem_O_T: int
            +SockaddrInfoLength: int
            +toBytes(): byte[]
        }

        enum StatusEnum [[StatusEnum.html]] {
            {static} +Success
            {static} +InvalidCommand
            {static} +InsufficientMemory
            {static} +IncorrectData
            {static} +InvalidSessionHandle
            {static} +InvalidLength
            {static} +UnsupportedEncapsulationProtocol
            -value: int
            -StatusEnum(int)
            +getValue(): int
        }

        CommonPacketFormat - -> SocketAddress: SocketaddrInfo_O_T
    }

    center footer UMLDoclet 2.0.9, PlantUML 1.2020.08
@enduml

PlantUML version 1.2020.08(Sun Apr 26 16:08:22 CEST 2020)
(APACHE source distribution)
Java Runtime: OpenJDK Runtime Environment
JVM: OpenJDK 64-Bit Server VM
Java Version: 14.0.2+12-46
Operating System: Mac OS X
Default Encoding: UTF-8
Language: fr
Country: FR
--></g></svg>